STARTFONT 2.1
COMMENT
COMMENT Converted from OpenType font "Q:\font stuff\winfont\CircleD.ttf" by "otf2bdf 3.0".
COMMENT
FONT -FreeType-CircleD-Medium-R-Normal--51-510-72-72-P-190-ISO10646-1
SIZE 51 72 72
FONTBOUNDINGBOX 64 56 -10 -14
STARTPROPERTIES 19
FOUNDRY "FreeType"
FAMILY_NAME "CircleD"
WEIGHT_NAME "Medium"
SLANT "R"
SETWIDTH_NAME "Normal"
ADD_STYLE_NAME ""
PIXEL_SIZE 36
POINT_SIZE 510
RESOLUTION_X 72
RESOLUTION_Y 72
SPACING "P"
AVERAGE_WIDTH 190
CHARSET_REGISTRY "ISO10646"
CHARSET_ENCODING "1"
FONT_ASCENT 52
FONT_DESCENT 8
COPYRIGHT "URW Software, Copyright 1995 by URW"
_OTF_FONTFILE "Q:\font stuff\winfont\CircleD.ttf"
_OTF_PSNAME "CircleD"
ENDPROPERTIES
CHARS 258
STARTCHAR 0020
ENCODING 32
SWIDTH 254 0
DWIDTH 13 0
BBX 0 0 0 0
BITMAP
ENDCHAR
STARTCHAR 0021
ENCODING 33
SWIDTH 137 0
DWIDTH 7 0
BBX 5 32 1 0
BITMAP
20
20
20
20
20
20
20
20
20
20
20
20
20
20
20
20
20
20
20
20
20
20
20
20
20
20
00
00
70
88
88
70
ENDCHAR
STARTCHAR 0022
ENCODING 34
SWIDTH 156 0
DWIDTH 8 0
BBX 4 10 2 15
BITMAP
90
90
90
90
90
90
90
90
90
90
ENDCHAR
STARTCHAR 0023
ENCODING 35
SWIDTH 392 0
DWIDTH 20 0
BBX 20 25 0 0
BITMAP
020080
020080
020080
020080
040100
040100
040100
3FFFF0
040100
040100
080100
080200
080200
080200
080200
080200
FFFFC0
100200
100400
100400
100400
100400
100400
100400
100400
ENDCHAR
STARTCHAR 0024
ENCODING 36
SWIDTH 372 0
DWIDTH 19 0
BBX 17 32 1 -4
BITMAP
008000
008000
03E000
0C9800
108400
208200
608200
408100
408100
408000
408000
408000
20F000
108C00
088200
078100
008100
008080
008080
008080
808080
808080
808080
808100
408100
208200
108400
0C9800
03E000
008000
008000
008000
ENDCHAR
STARTCHAR 0025
ENCODING 37
SWIDTH 549 0
DWIDTH 28 0
BBX 27 25 1 0
BITMAP
0F800800
30601000
60301000
40102000
80084000
80084000
80088000
80088000
40110000
60320000
30620000
0F840000
00087E00
00088300
001300C0
00220040
00240020
00440020
00440020
00840020
01040020
01020040
020300C0
04018180
04007E00
ENDCHAR
STARTCHAR 0026
ENCODING 38
SWIDTH 470 0
DWIDTH 24 0
BBX 22 25 1 0
BITMAP
07C000
0C6000
101000
101000
101000
101000
082000
04C000
030000
030000
048000
184000
202000
401000
400800
800C04
800408
800210
800120
8000C0
4001C0
400220
200C10
183008
07C004
ENDCHAR
STARTCHAR 0027
ENCODING 39
SWIDTH 98 0
DWIDTH 5 0
BBX 1 10 2 15
BITMAP
80
80
80
80
80
80
80
80
80
80
ENDCHAR
STARTCHAR 0028
ENCODING 40
SWIDTH 274 0
DWIDTH 14 0
BBX 10 46 3 -9
BITMAP
0040
0080
0100
0200
0200
0400
0800
0800
1000
1000
2000
2000
2000
4000
4000
4000
4000
8000
8000
8000
8000
8000
8000
8000
8000
8000
8000
8000
8000
4000
4000
4000
4000
2000
2000
2000
1000
1000
0800
0800
0400
0200
0200
0100
0080
0040
ENDCHAR
STARTCHAR 0029
ENCODING 41
SWIDTH 274 0
DWIDTH 14 0
BBX 10 46 1 -9
BITMAP
8000
4000
2000
2000
1000
0800
0800
0400
0200
0200
0200
0100
0100
0080
0080
0080
0080
0040
0040
0040
0040
0040
0040
0040
0040
0040
0040
0040
0040
0080
0080
0080
0080
0100
0100
0100
0200
0200
0400
0400
0800
1000
1000
2000
4000
8000
ENDCHAR
STARTCHAR 002A
ENCODING 42
SWIDTH 294 0
DWIDTH 15 0
BBX 11 11 2 23
BITMAP
0400
0400
0400
0400
C460
3F80
0C00
0A00
1100
2100
2080
ENDCHAR
STARTCHAR 002B
ENCODING 43
SWIDTH 372 0
DWIDTH 19 0
BBX 19 19 0 3
BITMAP
004000
004000
004000
004000
004000
004000
004000
004000
004000
FFFFE0
004000
004000
004000
004000
004000
004000
004000
004000
004000
ENDCHAR
STARTCHAR 002C
ENCODING 44
SWIDTH 196 0
DWIDTH 10 0
BBX 6 8 2 -4
BITMAP
04
08
10
10
20
40
40
80
ENDCHAR
STARTCHAR 002D
ENCODING 45
SWIDTH 254 0
DWIDTH 13 0
BBX 10 1 2 13
BITMAP
FFC0
ENDCHAR
STARTCHAR 002E
ENCODING 46
SWIDTH 215 0
DWIDTH 11 0
BBX 5 4 3 0
BITMAP
70
88
88
70
ENDCHAR
STARTCHAR 002F
ENCODING 47
SWIDTH 333 0
DWIDTH 17 0
BBX 19 43 0 -6
BITMAP
000020
000020
000040
000040
000080
000080
000100
000100
000100
000200
000200
000400
000400
000800
000800
001000
001000
001000
002000
002000
004000
004000
008000
008000
008000
010000
010000
020000
020000
040000
040000
040000
080000
080000
100000
100000
200000
200000
200000
400000
400000
800000
800000
ENDCHAR
STARTCHAR 0030
ENCODING 48
SWIDTH 549 0
DWIDTH 28 0
BBX 26 25 1 0
BITMAP
007F8000
0180E000
06001800
0C000C00
10000200
30000100
20000100
40000080
40000080
80000040
80000040
80000040
80000040
80000040
80000040
80000040
40000080
40000080
20000100
20000100
10000200
08000C00
06001800
0180E000
007F8000
ENDCHAR
STARTCHAR 0031
ENCODING 49
SWIDTH 196 0
DWIDTH 10 0
BBX 9 25 -1 0
BITMAP
FF80
0080
0080
0080
0080
0080
0080
0080
0080
0080
0080
0080
0080
0080
0080
0080
0080
0080
0080
0080
0080
0080
0080
0080
0080
ENDCHAR
STARTCHAR 0032
ENCODING 50
SWIDTH 333 0
DWIDTH 17 0
BBX 16 25 1 0
BITMAP
0FC0
1860
6010
4008
800C
8004
8004
8004
0004
0008
0010
0010
0020
0040
0080
0100
0200
0400
0800
0800
1000
2000
4000
8000
FFFF
ENDCHAR
STARTCHAR 0033
ENCODING 51
SWIDTH 352 0
DWIDTH 18 0
BBX 17 25 0 0
BITMAP
03E000
0C1800
100C00
200400
000200
000200
000200
000200
00E400
001C00
000C00
007200
000100
000100
000080
000080
000080
000080
000080
800180
800100
400200
200600
181800
07E000
ENDCHAR
STARTCHAR 0034
ENCODING 52
SWIDTH 509 0
DWIDTH 26 0
BBX 25 25 0 0
BITMAP
00004000
0001C000
00024000
00044000
00084000
00104000
00204000
00404000
00404000
00804000
01004000
02004000
04004000
08004000
10004000
20004000
40004000
FFFFFF80
00004000
00004000
00004000
00004000
00004000
00004000
00004000
ENDCHAR
STARTCHAR 0035
ENCODING 53
SWIDTH 392 0
DWIDTH 20 0
BBX 20 25 0 0
BITMAP
0FFFC0
080000
080000
080000
080000
080000
080000
09F800
0E0700
000180
0000C0
000060
000020
000010
000010
000010
000010
800010
800010
800020
400060
2000C0
100180
0C0700
03F800
ENDCHAR
STARTCHAR 0036
ENCODING 54
SWIDTH 450 0
DWIDTH 23 0
BBX 21 33 1 0
BITMAP
000080
000100
000100
000200
000400
000400
000800
001000
001000
002000
004000
004000
01FC00
070300
090080
120040
240020
440010
480010
900008
900008
A00008
800008
800008
800008
800008
400010
400010
200020
100040
080080
060300
01FC00
ENDCHAR
STARTCHAR 0037
ENCODING 55
SWIDTH 294 0
DWIDTH 15 0
BBX 16 34 0 -9
BITMAP
FFFF
0001
0002
0002
0004
0004
0008
0008
0010
0010
0020
0020
0040
0040
0040
0080
0080
0100
0100
0200
0200
0400
0400
0800
0800
1000
1000
1000
2000
2000
4000
4000
8000
8000
ENDCHAR
STARTCHAR 0038
ENCODING 56
SWIDTH 392 0
DWIDTH 20 0
BBX 18 25 1 0
BITMAP
01E000
061800
080400
180600
100200
100200
100200
100200
13F400
0C0C00
37F200
200100
400080
800080
800040
800040
800040
800040
800040
400080
400080
200100
100200
0C0C00
03F000
ENDCHAR
STARTCHAR 0039
ENCODING 57
SWIDTH 450 0
DWIDTH 23 0
BBX 21 33 1 -8
BITMAP
01FC00
060700
080080
100040
200020
400010
400010
800018
800008
800008
800008
800028
800048
800048
400090
400110
200120
100240
080480
060500
01FE00
001000
001000
002000
002000
004000
008000
008000
010000
010000
020000
040000
040000
ENDCHAR
STARTCHAR 003A
ENCODING 58
SWIDTH 215 0
DWIDTH 11 0
BBX 5 16 3 0
BITMAP
70
88
88
70
00
00
00
00
00
00
00
00
70
88
88
70
ENDCHAR
STARTCHAR 003B
ENCODING 59
SWIDTH 196 0
DWIDTH 10 0
BBX 6 20 2 -4
BITMAP
18
24
24
18
00
00
00
00
00
00
00
00
04
08
10
10
20
40
40
80
ENDCHAR
STARTCHAR 003C
ENCODING 60
SWIDTH 509 0
DWIDTH 26 0
BBX 22 20 2 7
BITMAP
00000C
000030
0000C0
000700
001C00
006000
038000
0E0000
300000
C00000
C00000
300000
0E0000
018000
006000
001C00
000700
0000C0
000030
00000C
ENDCHAR
STARTCHAR 003D
ENCODING 61
SWIDTH 372 0
DWIDTH 19 0
BBX 17 5 1 10
BITMAP
FFFF80
000000
000000
000000
FFFF80
ENDCHAR
STARTCHAR 003E
ENCODING 62
SWIDTH 509 0
DWIDTH 26 0
BBX 22 20 2 7
BITMAP
C00000
300000
0C0000
030000
00E000
001800
000600
000180
000070
00000C
00001C
000070
000180
000600
001800
00E000
030000
0C0000
300000
C00000
ENDCHAR
STARTCHAR 003F
ENCODING 63
SWIDTH 196 0
DWIDTH 10 0
BBX 6 32 2 0
BITMAP
40
20
10
08
08
04
04
04
04
04
04
04
08
08
08
10
10
20
20
20
40
40
40
40
40
00
00
00
40
A0
A0
60
ENDCHAR
STARTCHAR 0040
ENCODING 64
SWIDTH 725 0
DWIDTH 37 0
BBX 36 34 0 0
BITMAP
0003FC0000
001C038000
0060006000
0180001800
0300000400
0400000200
0800000100
1001F80080
30060600C0
2018018040
403000C060
4060004020
4040002020
80C0002010
8080001010
8080001010
8080009010
8080009010
8080009010
80C0009010
804000A010
406000A020
403000C020
4018018020
200E068040
2003F8FE40
1000000000
0800000000
0400000000
0200000000
0100000000
00C0000000
0030000000
000FC00000
ENDCHAR
STARTCHAR 0041
ENCODING 65
SWIDTH 549 0
DWIDTH 28 0
BBX 27 25 0 0
BITMAP
003F8000
01C07000
06000800
0C000600
18000300
30000180
20000080
40000040
40000040
80000060
80000020
80000020
80000220
80000220
80000220
80000220
40000240
40000240
20000240
30000280
10000300
0C000200
06000E00
01C03200
003FC200
ENDCHAR
STARTCHAR 0042
ENCODING 66
SWIDTH 549 0
DWIDTH 28 0
BBX 27 34 1 0
BITMAP
08000000
08000000
08000000
08000000
08000000
08000000
08000000
08000000
08000000
083F8000
09C07000
0E000C00
08000600
18000300
28000180
48000080
48000040
48000040
88000020
88000020
88000020
88000020
80000020
80000020
80000020
40000040
40000040
20000080
30000180
18000300
0C000600
06000C00
01C07000
003F8000
ENDCHAR
STARTCHAR 0043
ENCODING 67
SWIDTH 470 0
DWIDTH 24 0
BBX 23 25 1 0
BITMAP
003F80
01C070
06000C
0C0002
100000
300000
200000
400000
400000
800000
800000
800000
800000
800000
800000
800000
400000
400000
200000
300000
100000
0C0002
06000C
01C070
003F80
ENDCHAR
STARTCHAR 0044
ENCODING 68
SWIDTH 549 0
DWIDTH 28 0
BBX 27 34 0 0
BITMAP
00000200
00000200
00000200
00000200
00000200
00000200
00000200
00000200
00000200
003F8200
01C07200
06000E00
0C000200
18000300
30000280
20000240
40000240
40000240
80000220
80000220
80000220
80000220
80000020
80000020
80000060
40000040
40000040
20000080
30000180
18000300
0C000600
06000C00
01C07000
003F8000
ENDCHAR
STARTCHAR 0045
ENCODING 69
SWIDTH 549 0
DWIDTH 28 0
BBX 26 25 1 0
BITMAP
007F8000
01C06000
06001800
0C000400
10000200
30000100
20000100
40000080
40000080
80000040
80000040
80000040
8FFFFFC0
80000000
80000000
80000000
40000000
40000000
20000000
30000000
10000000
0C000000
06000400
01C03800
007FC000
ENDCHAR
STARTCHAR 0046
ENCODING 70
SWIDTH 294 0
DWIDTH 15 0
BBX 14 34 1 0
BITMAP
003C
01C0
0200
0C00
1000
3000
2000
4000
4000
4000
8000
8000
8000
8000
8000
8000
8000
8000
8000
8000
8000
FFFC
8000
8000
8000
8000
8000
8000
8000
8000
8000
8000
8000
8000
ENDCHAR
STARTCHAR 0047
ENCODING 71
SWIDTH 549 0
DWIDTH 28 0
BBX 27 34 0 -9
BITMAP
003F8000
01C07000
06000C00
0C000600
18000300
30000180
20000080
40000040
40000040
80000060
80000020
80000020
80000220
80000220
80000220
80000220
40000240
40000240
20000240
30000280
10000300
0C000200
06000E00
01C03200
003FC200
04000200
04000200
04000200
04000400
02000400
01000800
00801000
00606000
001F8000
ENDCHAR
STARTCHAR 0048
ENCODING 72
SWIDTH 392 0
DWIDTH 20 0
BBX 18 34 1 0
BITMAP
800000
800000
800000
800000
800000
800000
800000
800000
800000
83F000
8C0C00
900300
A00100
C00080
C00080
800040
800040
800040
800040
800040
800040
800040
800040
800040
800040
800040
800040
800040
800040
800040
800040
800040
800040
800040
ENDCHAR
STARTCHAR 0049
ENCODING 73
SWIDTH 78 0
DWIDTH 4 0
BBX 5 31 0 0
BITMAP
70
88
88
70
00
00
20
20
20
20
20
20
20
20
20
20
20
20
20
20
20
20
20
20
20
20
20
20
20
20
20
ENDCHAR
STARTCHAR 004A
ENCODING 74
SWIDTH 78 0
DWIDTH 4 0
BBX 15 40 -10 -9
BITMAP
001C
0022
0022
001C
0000
0000
0008
0008
0008
0008
0008
0008
0008
0008
0008
0008
0008
0008
0008
0008
0008
0008
0008
0008
0008
0008
0008
0008
0008
0008
0008
0010
0010
0020
0020
0040
0080
0300
0400
F800
ENDCHAR
STARTCHAR 004B
ENCODING 75
SWIDTH 392 0
DWIDTH 20 0
BBX 18 34 1 0
BITMAP
800000
800000
800000
800000
800000
800000
800000
800000
800000
800080
800080
800100
800100
800200
800400
800400
800800
801000
806000
818000
8E0000
FC0000
838000
804000
803000
800800
800400
800200
800100
800100
800080
800080
800040
800040
ENDCHAR
STARTCHAR 004C
ENCODING 76
SWIDTH 78 0
DWIDTH 4 0
BBX 1 34 1 0
BITMAP
80
80
80
80
80
80
80
80
80
80
80
80
80
80
80
80
80
80
80
80
80
80
80
80
80
80
80
80
80
80
80
80
80
80
ENDCHAR
STARTCHAR 004D
ENCODING 77
SWIDTH 627 0
DWIDTH 32 0
BBX 30 25 1 0
BITMAP
03F03F00
0C0EC0C0
30010030
20030010
40028008
40048008
80044004
80044004
80044004
80044004
80044004
80044004
80044004
80044004
80044004
80044004
80044004
80044004
80044004
80044004
80044004
80044004
80044004
80044004
80044004
ENDCHAR
STARTCHAR 004E
ENCODING 78
SWIDTH 392 0
DWIDTH 20 0
BBX 18 25 1 0
BITMAP
83F000
8C0C00
900300
A00100
C00080
C00080
800040
800040
800040
800040
800040
800040
800040
800040
800040
800040
800040
800040
800040
800040
800040
800040
800040
800040
800040
ENDCHAR
STARTCHAR 004F
ENCODING 79
SWIDTH 568 0
DWIDTH 29 0
BBX 27 25 1 0
BITMAP
007F8000
01806000
06001800
08000400
10000200
20000100
40000080
40000080
80000080
80000040
80000040
80000040
40000020
40000020
40000020
40000020
40000040
20000040
10000080
10000080
08000100
04000200
03000C00
00C03000
003FC000
ENDCHAR
STARTCHAR 0050
ENCODING 80
SWIDTH 549 0
DWIDTH 28 0
BBX 27 34 1 -9
BITMAP
003F8000
01C07000
06000C00
0C000600
18000300
30000180
20000080
40000040
40000040
80000020
80000020
80000020
88000020
88000020
88000020
88000020
88000040
48000040
48000080
28000180
18000300
08000600
0E000C00
09807000
087FC000
08000000
08000000
08000000
08000000
08000000
08000000
08000000
08000000
08000000
ENDCHAR
STARTCHAR 0051
ENCODING 81
SWIDTH 549 0
DWIDTH 28 0
BBX 27 34 0 -9
BITMAP
003F8000
01C07000
06000800
0C000600
18000300
30000180
20000080
40000040
40000040
80000060
80000020
80000020
80000220
80000220
80000220
80000220
40000240
40000240
20000240
30000280
10000300
0C000200
06000E00
01C03200
003FC200
00000200
00000200
00000200
00000200
00000200
00000200
00000200
00000200
00000200
ENDCHAR
STARTCHAR 0052
ENCODING 82
SWIDTH 235 0
DWIDTH 12 0
BBX 10 25 1 0
BITMAP
80C0
8300
8C00
9000
A000
A000
C000
C000
8000
8000
8000
8000
8000
8000
8000
8000
8000
8000
8000
8000
8000
8000
8000
8000
8000
ENDCHAR
STARTCHAR 0053
ENCODING 83
SWIDTH 352 0
DWIDTH 18 0
BBX 17 25 1 0
BITMAP
07E000
0C1800
300400
200400
400200
400200
400000
400000
400000
20E000
201800
180600
070200
000100
000080
000080
000080
800080
800080
800180
400100
400300
300600
081800
07E000
ENDCHAR
STARTCHAR 0054
ENCODING 84
SWIDTH 313 0
DWIDTH 16 0
BBX 16 30 0 0
BITMAP
0800
0800
0800
0800
0800
FFFF
0800
0800
0800
0800
0800
0800
0800
0800
0800
0800
0800
0800
0800
0800
0800
0800
0800
0800
0800
0800
0800
0800
0800
0800
ENDCHAR
STARTCHAR 0055
ENCODING 85
SWIDTH 392 0
DWIDTH 20 0
BBX 18 25 1 0
BITMAP
800040
800040
800040
800040
800040
800040
800040
800040
800040
800040
800040
800040
800040
800040
800040
800040
800040
800040
800040
4000C0
4000C0
200140
300240
0C0C40
03F040
ENDCHAR
STARTCHAR 0056
ENCODING 86
SWIDTH 411 0
DWIDTH 21 0
BBX 21 25 0 0
BITMAP
800008
800008
400010
400010
400020
200020
200040
100040
100040
100080
080080
080100
040100
040100
040200
020200
020400
010400
010800
008800
008800
009000
005000
006000
002000
ENDCHAR
STARTCHAR 0057
ENCODING 87
SWIDTH 627 0
DWIDTH 32 0
BBX 30 25 1 0
BITMAP
80044004
80044004
80044004
80044004
80044004
80044004
80044004
80044004
80044004
80044004
80044004
80044004
80044004
80044004
80044004
80044004
80044004
80044004
80044004
40048008
40028008
20028018
30010030
0C06C0E0
03F83F80
ENDCHAR
STARTCHAR 0058
ENCODING 88
SWIDTH 431 0
DWIDTH 22 0
BBX 22 25 0 0
BITMAP
F0003C
0C00C0
030300
008400
004800
003000
001000
003000
003000
004800
004800
004800
004800
004800
004800
004800
003000
003000
001000
003000
004800
008400
010200
060180
F8007C
ENDCHAR
STARTCHAR 0059
ENCODING 89
SWIDTH 392 0
DWIDTH 20 0
BBX 18 34 1 -9
BITMAP
800040
800040
800040
800040
800040
800040
800040
800040
800040
800040
800040
800040
800040
800040
800040
800040
800040
800040
800040
4000C0
4000C0
200140
300240
0C0C40
03F040
000040
000040
000040
000040
000040
000040
000040
000040
000040
ENDCHAR
STARTCHAR 005A
ENCODING 90
SWIDTH 333 0
DWIDTH 17 0
BBX 16 25 1 0
BITMAP
FFFE
0004
0004
0008
0008
0010
0020
0020
0040
0080
0080
0100
0100
0200
0400
0400
0800
1000
1000
2000
2000
4000
8000
8000
FFFF
ENDCHAR
STARTCHAR 005B
ENCODING 91
SWIDTH 215 0
DWIDTH 11 0
BBX 8 46 3 -9
BITMAP
FF
80
80
80
80
80
80
80
80
80
80
80
80
80
80
80
80
80
80
80
80
80
80
80
80
80
80
80
80
80
80
80
80
80
80
80
80
80
80
80
80
80
80
80
80
FF
ENDCHAR
STARTCHAR 005C
ENCODING 92
SWIDTH 333 0
DWIDTH 17 0
BBX 18 43 -1 -6
BITMAP
800000
800000
400000
400000
400000
200000
200000
100000
100000
100000
080000
080000
040000
040000
040000
020000
020000
010000
010000
008000
008000
008000
004000
004000
002000
002000
002000
001000
001000
000800
000800
000800
000400
000400
000200
000200
000200
000100
000100
000080
000080
000040
000040
ENDCHAR
STARTCHAR 005D
ENCODING 93
SWIDTH 215 0
DWIDTH 11 0
BBX 8 46 0 -9
BITMAP
FF
01
01
01
01
01
01
01
01
01
01
01
01
01
01
01
01
01
01
01
01
01
01
01
01
01
01
01
01
01
01
01
01
01
01
01
01
01
01
01
01
01
01
01
01
FF
ENDCHAR
STARTCHAR 005E
ENCODING 94
SWIDTH 509 0
DWIDTH 26 0
BBX 20 14 3 20
BITMAP
006000
00B000
019000
010800
020C00
060400
040200
080300
180180
100080
200040
400060
400020
800010
ENDCHAR
STARTCHAR 005F
ENCODING 95
SWIDTH 509 0
DWIDTH 26 0
BBX 26 1 0 -5
BITMAP
FFFFFFC0
ENDCHAR
STARTCHAR 0060
ENCODING 96
SWIDTH 509 0
DWIDTH 26 0
BBX 5 5 10 29
BITMAP
80
40
20
10
08
ENDCHAR
STARTCHAR 0061
ENCODING 97
SWIDTH 549 0
DWIDTH 28 0
BBX 27 25 0 0
BITMAP
003F8000
01C07000
06000800
0C000600
18000300
30000180
20000080
40000040
40000040
80000060
80000020
80000020
80000220
80000220
80000220
80000220
40000240
40000240
20000240
30000280
10000300
0C000200
06000E00
01C03200
003FC200
ENDCHAR
STARTCHAR 0062
ENCODING 98
SWIDTH 549 0
DWIDTH 28 0
BBX 27 34 1 0
BITMAP
08000000
08000000
08000000
08000000
08000000
08000000
08000000
08000000
08000000
083F8000
09C07000
0E000C00
08000600
18000300
28000180
48000080
48000040
48000040
88000020
88000020
88000020
88000020
80000020
80000020
80000020
40000040
40000040
20000080
30000180
18000300
0C000600
06000C00
01C07000
003F8000
ENDCHAR
STARTCHAR 0063
ENCODING 99
SWIDTH 470 0
DWIDTH 24 0
BBX 23 25 1 0
BITMAP
003F80
01C070
06000C
0C0002
100000
300000
200000
400000
400000
800000
800000
800000
800000
800000
800000
800000
400000
400000
200000
300000
100000
0C0002
06000C
01C070
003F80
ENDCHAR
STARTCHAR 0064
ENCODING 100
SWIDTH 549 0
DWIDTH 28 0
BBX 27 34 0 0
BITMAP
00000200
00000200
00000200
00000200
00000200
00000200
00000200
00000200
00000200
003F8200
01C07200
06000E00
0C000200
18000300
30000280
20000240
40000240
40000240
80000220
80000220
80000220
80000220
80000020
80000020
80000060
40000040
40000040
20000080
30000180
18000300
0C000600
06000C00
01C07000
003F8000
ENDCHAR
STARTCHAR 0065
ENCODING 101
SWIDTH 549 0
DWIDTH 28 0
BBX 26 25 1 0
BITMAP
007F8000
01C06000
06001800
0C000400
10000200
30000100
20000100
40000080
40000080
80000040
80000040
80000040
8FFFFFC0
80000000
80000000
80000000
40000000
40000000
20000000
30000000
10000000
0C000000
06000400
01C03800
007FC000
ENDCHAR
STARTCHAR 0066
ENCODING 102
SWIDTH 294 0
DWIDTH 15 0
BBX 14 34 1 0
BITMAP
003C
01C0
0200
0C00
1000
3000
2000
4000
4000
4000
8000
8000
8000
8000
8000
8000
8000
8000
8000
8000
8000
FFFC
8000
8000
8000
8000
8000
8000
8000
8000
8000
8000
8000
8000
ENDCHAR
STARTCHAR 0067
ENCODING 103
SWIDTH 549 0
DWIDTH 28 0
BBX 27 34 0 -9
BITMAP
003F8000
01C07000
06000C00
0C000600
18000300
30000180
20000080
40000040
40000040
80000060
80000020
80000020
80000220
80000220
80000220
80000220
40000240
40000240
20000240
30000280
10000300
0C000200
06000E00
01C03200
003FC200
04000200
04000200
04000200
04000400
02000400
01000800
00801000
00606000
001F8000
ENDCHAR
STARTCHAR 0068
ENCODING 104
SWIDTH 392 0
DWIDTH 20 0
BBX 18 34 1 0
BITMAP
800000
800000
800000
800000
800000
800000
800000
800000
800000
83F000
8C0C00
900300
A00100
C00080
C00080
800040
800040
800040
800040
800040
800040
800040
800040
800040
800040
800040
800040
800040
800040
800040
800040
800040
800040
800040
ENDCHAR
STARTCHAR 0069
ENCODING 105
SWIDTH 78 0
DWIDTH 4 0
BBX 5 31 0 0
BITMAP
70
88
88
70
00
00
20
20
20
20
20
20
20
20
20
20
20
20
20
20
20
20
20
20
20
20
20
20
20
20
20
ENDCHAR
STARTCHAR 006A
ENCODING 106
SWIDTH 78 0
DWIDTH 4 0
BBX 15 40 -10 -9
BITMAP
001C
0022
0022
001C
0000
0000
0008
0008
0008
0008
0008
0008
0008
0008
0008
0008
0008
0008
0008
0008
0008
0008
0008
0008
0008
0008
0008
0008
0008
0008
0008
0010
0010
0020
0020
0040
0080
0300
0400
F800
ENDCHAR
STARTCHAR 006B
ENCODING 107
SWIDTH 392 0
DWIDTH 20 0
BBX 18 34 1 0
BITMAP
800000
800000
800000
800000
800000
800000
800000
800000
800000
800080
800080
800100
800100
800200
800400
800400
800800
801000
806000
818000
8E0000
FC0000
838000
804000
803000
800800
800400
800200
800100
800100
800080
800080
800040
800040
ENDCHAR
STARTCHAR 006C
ENCODING 108
SWIDTH 78 0
DWIDTH 4 0
BBX 1 34 1 0
BITMAP
80
80
80
80
80
80
80
80
80
80
80
80
80
80
80
80
80
80
80
80
80
80
80
80
80
80
80
80
80
80
80
80
80
80
ENDCHAR
STARTCHAR 006D
ENCODING 109
SWIDTH 627 0
DWIDTH 32 0
BBX 30 25 1 0
BITMAP
03F03F00
0C0EC0C0
30010030
20030010
40028008
40048008
80044004
80044004
80044004
80044004
80044004
80044004
80044004
80044004
80044004
80044004
80044004
80044004
80044004
80044004
80044004
80044004
80044004
80044004
80044004
ENDCHAR
STARTCHAR 006E
ENCODING 110
SWIDTH 392 0
DWIDTH 20 0
BBX 18 25 1 0
BITMAP
83F000
8C0C00
900300
A00100
C00080
C00080
800040
800040
800040
800040
800040
800040
800040
800040
800040
800040
800040
800040
800040
800040
800040
800040
800040
800040
800040
ENDCHAR
STARTCHAR 006F
ENCODING 111
SWIDTH 568 0
DWIDTH 29 0
BBX 27 25 1 0
BITMAP
007F8000
01806000
06001800
08000400
10000200
20000100
40000080
40000080
80000080
80000040
80000040
80000040
40000020
40000020
40000020
40000020
40000040
20000040
10000080
10000080
08000100
04000200
03000C00
00C03000
003FC000
ENDCHAR
STARTCHAR 0070
ENCODING 112
SWIDTH 549 0
DWIDTH 28 0
BBX 27 34 1 -9
BITMAP
003F8000
01C07000
06000C00
0C000600
18000300
30000180
20000080
40000040
40000040
80000020
80000020
80000020
88000020
88000020
88000020
88000020
88000040
48000040
48000080
28000180
18000300
08000600
0E000C00
09807000
087FC000
08000000
08000000
08000000
08000000
08000000
08000000
08000000
08000000
08000000
ENDCHAR
STARTCHAR 0071
ENCODING 113
SWIDTH 549 0
DWIDTH 28 0
BBX 27 34 0 -9
BITMAP
003F8000
01C07000
06000800
0C000600
18000300
30000180
20000080
40000040
40000040
80000060
80000020
80000020
80000220
80000220
80000220
80000220
40000240
40000240
20000240
30000280
10000300
0C000200
06000E00
01C03200
003FC200
00000200
00000200
00000200
00000200
00000200
00000200
00000200
00000200
00000200
ENDCHAR
STARTCHAR 0072
ENCODING 114
SWIDTH 235 0
DWIDTH 12 0
BBX 10 25 1 0
BITMAP
80C0
8300
8C00
9000
A000
A000
C000
C000
8000
8000
8000
8000
8000
8000
8000
8000
8000
8000
8000
8000
8000
8000
8000
8000
8000
ENDCHAR
STARTCHAR 0073
ENCODING 115
SWIDTH 352 0
DWIDTH 18 0
BBX 17 25 1 0
BITMAP
07E000
0C1800
300400
200400
400200
400200
400000
400000
400000
20E000
201800
180600
070200
000100
000080
000080
000080
800080
800080
800180
400100
400300
300600
081800
07E000
ENDCHAR
STARTCHAR 0074
ENCODING 116
SWIDTH 313 0
DWIDTH 16 0
BBX 16 30 0 0
BITMAP
0800
0800
0800
0800
0800
FFFF
0800
0800
0800
0800
0800
0800
0800
0800
0800
0800
0800
0800
0800
0800
0800
0800
0800
0800
0800
0800
0800
0800
0800
0800
ENDCHAR
STARTCHAR 0075
ENCODING 117
SWIDTH 392 0
DWIDTH 20 0
BBX 18 25 1 0
BITMAP
800040
800040
800040
800040
800040
800040
800040
800040
800040
800040
800040
800040
800040
800040
800040
800040
800040
800040
800040
4000C0
4000C0
200140
300240
0C0C40
03F040
ENDCHAR
STARTCHAR 0076
ENCODING 118
SWIDTH 411 0
DWIDTH 21 0
BBX 21 25 0 0
BITMAP
800008
800008
400010
400010
400020
200020
200040
100040
100040
100080
080080
080100
040100
040100
040200
020200
020400
010400
010800
008800
008800
009000
005000
006000
002000
ENDCHAR
STARTCHAR 0077
ENCODING 119
SWIDTH 627 0
DWIDTH 32 0
BBX 30 25 1 0
BITMAP
80044004
80044004
80044004
80044004
80044004
80044004
80044004
80044004
80044004
80044004
80044004
80044004
80044004
80044004
80044004
80044004
80044004
80044004
80044004
40048008
40028008
20028018
30010030
0C06C0E0
03F83F80
ENDCHAR
STARTCHAR 0078
ENCODING 120
SWIDTH 431 0
DWIDTH 22 0
BBX 22 25 0 0
BITMAP
F0003C
0C00C0
030300
008400
004800
003000
001000
003000
003000
004800
004800
004800
004800
004800
004800
004800
003000
003000
001000
003000
004800
008400
010200
060180
F8007C
ENDCHAR
STARTCHAR 0079
ENCODING 121
SWIDTH 392 0
DWIDTH 20 0
BBX 18 34 1 -9
BITMAP
800040
800040
800040
800040
800040
800040
800040
800040
800040
800040
800040
800040
800040
800040
800040
800040
800040
800040
800040
4000C0
4000C0
200140
300240
0C0C40
03F040
000040
000040
000040
000040
000040
000040
000040
000040
000040
ENDCHAR
STARTCHAR 007A
ENCODING 122
SWIDTH 333 0
DWIDTH 17 0
BBX 16 25 1 0
BITMAP
FFFE
0004
0004
0008
0008
0010
0020
0020
0040
0080
0080
0100
0100
0200
0400
0400
0800
1000
1000
2000
2000
4000
8000
8000
FFFF
ENDCHAR
STARTCHAR 007B
ENCODING 123
SWIDTH 254 0
DWIDTH 13 0
BBX 10 46 3 -9
BITMAP
00C0
0300
0C00
1000
3000
2000
6000
4000
4000
4000
4000
4000
4000
4000
2000
2000
2000
2000
2000
2000
4000
4000
8000
8000
4000
4000
2000
2000
2000
2000
2000
2000
4000
4000
4000
4000
4000
4000
4000
4000
2000
2000
1000
0800
0600
01C0
ENDCHAR
STARTCHAR 007C
ENCODING 124
SWIDTH 509 0
DWIDTH 26 0
BBX 1 42 12 -8
BITMAP
80
80
80
80
80
80
80
80
80
80
80
80
80
80
80
80
80
80
80
80
80
80
80
80
80
80
80
80
80
80
80
80
80
80
80
80
80
80
80
80
80
80
ENDCHAR
STARTCHAR 007D
ENCODING 125
SWIDTH 254 0
DWIDTH 13 0
BBX 10 46 0 -9
BITMAP
C000
3000
0C00
0200
0300
0100
0080
0080
0080
0080
0080
0080
0080
0080
0100
0100
0100
0100
0100
0100
0100
0080
0040
0040
0080
0100
0100
0100
0100
0100
0100
0100
0080
0080
0080
0080
0080
0080
0080
0100
0100
0300
0200
0400
1800
E000
ENDCHAR
STARTCHAR 007E
ENCODING 126
SWIDTH 666 0
DWIDTH 34 0
BBX 24 5 5 31
BITMAP
0F8001
306003
601806
40060C
8001F0
ENDCHAR
STARTCHAR 00A0
ENCODING 160
SWIDTH 254 0
DWIDTH 13 0
BBX 0 0 0 0
BITMAP
ENDCHAR
STARTCHAR 00A1
ENCODING 161
SWIDTH 137 0
DWIDTH 7 0
BBX 5 31 1 -6
BITMAP
70
88
70
00
00
00
20
20
20
20
20
20
20
20
20
20
20
20
20
20
20
20
20
20
20
20
20
20
20
20
20
ENDCHAR
STARTCHAR 00A2
ENCODING 162
SWIDTH 352 0
DWIDTH 18 0
BBX 17 24 0 -1
BITMAP
004000
004000
00F000
074E00
184100
304080
204000
404000
404000
804000
804000
804000
804000
804000
804000
404000
404000
204000
104080
0C4300
03FC00
004000
004000
004000
ENDCHAR
STARTCHAR 00A3
ENCODING 163
SWIDTH 333 0
DWIDTH 17 0
BBX 16 25 1 0
BITMAP
0007
0038
00C0
0100
0200
0400
0800
0800
1800
1000
1000
1000
1000
1000
1000
FFFF
1000
1000
1000
1000
1000
1000
1000
1000
1FFF
ENDCHAR
STARTCHAR 00A4
ENCODING 164
SWIDTH 372 0
DWIDTH 19 0
BBX 17 17 1 4
BITMAP
03E000
4C1900
300600
200200
400100
400100
800080
800080
800080
800080
800080
400100
400100
200200
300600
4C1900
03E000
ENDCHAR
STARTCHAR 00A5
ENCODING 165
SWIDTH 352 0
DWIDTH 18 0
BBX 17 25 0 0
BITMAP
800080
800100
400100
400200
200200
100400
100400
080800
081000
041000
042000
022000
FF7F80
014000
008000
008000
7FFF00
008000
008000
008000
008000
008000
008000
008000
008000
ENDCHAR
STARTCHAR 00A6
ENCODING 166
SWIDTH 509 0
DWIDTH 26 0
BBX 1 42 12 -8
BITMAP
80
80
80
80
80
80
80
80
80
80
80
80
80
80
80
80
00
00
00
00
00
00
00
00
00
00
80
80
80
80
80
80
80
80
80
80
80
80
80
80
80
80
ENDCHAR
STARTCHAR 00A7
ENCODING 167
SWIDTH 372 0
DWIDTH 19 0
BBX 17 34 1 -9
BITMAP
03E000
0C1800
180400
100400
200200
200200
200000
200000
200000
27F000
181C00
280600
478300
400100
800080
800080
800080
800080
800080
C00100
40E100
201200
300C00
0C1C00
07E400
000200
000200
000200
200200
200600
200400
100C00
0C1800
03E000
ENDCHAR
STARTCHAR 00A8
ENCODING 168
SWIDTH 509 0
DWIDTH 26 0
BBX 10 3 8 30
BITMAP
8040
8040
8040
ENDCHAR
STARTCHAR 00A9
ENCODING 169
SWIDTH 725 0
DWIDTH 37 0
BBX 35 35 1 -1
BITMAP
0007FC0000
0038038000
00E000C000
0180003000
0200000800
0400000400
0800000200
10001C0100
3000E00180
2001000080
60020000C0
4004000040
4008000040
8008000020
8010000020
8010000020
8010000020
8010000020
8010000020
8010000020
8010000020
8008000060
4008000040
4004000040
60020000C0
2001000080
3000C00180
10003C0100
0800000200
0400000400
0200000800
0180003000
00C000E000
0038038000
0007FC0000
ENDCHAR
STARTCHAR 00AA
ENCODING 170
SWIDTH 235 0
DWIDTH 12 0
BBX 11 10 1 15
BITMAP
1F00
2080
4040
8020
80A0
80A0
80A0
40C0
6180
1E80
ENDCHAR
STARTCHAR 00AB
ENCODING 171
SWIDTH 254 0
DWIDTH 13 0
BBX 9 16 2 5
BITMAP
0880
1100
1100
2200
2400
4400
4800
9800
9000
8800
4400
4400
2200
1100
1100
0880
ENDCHAR
STARTCHAR 00AC
ENCODING 172
SWIDTH 509 0
DWIDTH 26 0
BBX 22 14 2 0
BITMAP
FFFFFC
000004
000004
000004
000004
000004
000004
000004
000004
000004
000004
000004
000004
000004
ENDCHAR
STARTCHAR 00AD
ENCODING 173
SWIDTH 254 0
DWIDTH 13 0
BBX 10 1 2 13
BITMAP
FFC0
ENDCHAR
STARTCHAR 00AE
ENCODING 174
SWIDTH 725 0
DWIDTH 37 0
BBX 36 35 1 -1
BITMAP
0003FC0000
001C038000
0060006000
0180001800
0300000C00
0400000200
0800000100
1001F00080
3006880080
2008840040
6000820040
4000820020
4000820020
8000820010
8000860010
8000840010
8000A80010
8001F00010
8000900010
8000880010
8000880010
8000840030
4000840020
4000820020
6000810060
2000810040
1000808080
1000000080
0800000100
0400000200
0300000C00
0180001800
0060006000
001C038000
0003FC0000
ENDCHAR
STARTCHAR 00AF
ENCODING 175
SWIDTH 509 0
DWIDTH 26 0
BBX 26 1 0 39
BITMAP
FFFFFFC0
ENDCHAR
STARTCHAR 00B0
ENCODING 176
SWIDTH 294 0
DWIDTH 15 0
BBX 11 11 2 14
BITMAP
1F00
2080
4040
8020
8020
8020
8020
8020
4040
2080
1F00
ENDCHAR
STARTCHAR 00B1
ENCODING 177
SWIDTH 372 0
DWIDTH 19 0
BBX 19 21 0 2
BITMAP
004000
004000
004000
004000
004000
004000
004000
004000
004000
FFFFE0
004000
004000
004000
004000
004000
004000
004000
004000
000000
000000
FFFFE0
ENDCHAR
STARTCHAR 00B2
ENCODING 178
SWIDTH 235 0
DWIDTH 12 0
BBX 9 16 2 10
BITMAP
3C00
4200
8300
8100
8100
0100
0200
0200
0400
0800
1000
2000
2000
4000
8000
FF80
ENDCHAR
STARTCHAR 00B3
ENCODING 179
SWIDTH 235 0
DWIDTH 12 0
BBX 10 16 1 10
BITMAP
1E00
2300
4180
0080
0080
0080
0300
0680
0080
0040
0040
0040
8040
8080
6180
1E00
ENDCHAR
STARTCHAR 00B4
ENCODING 180
SWIDTH 509 0
DWIDTH 26 0
BBX 5 5 10 29
BITMAP
08
10
20
40
80
ENDCHAR
STARTCHAR 00B5
ENCODING 181
SWIDTH 313 0
DWIDTH 16 0
BBX 14 28 1 -9
BITMAP
8004
8004
8004
8004
8004
8004
8004
8004
8004
8004
8004
8004
8004
8004
8004
C00C
A014
B064
8FC4
8000
8000
8000
8000
8000
8000
8000
8000
8000
ENDCHAR
STARTCHAR 00B6
ENCODING 182
SWIDTH 274 0
DWIDTH 14 0
BBX 13 36 0 -9
BITMAP
0120
03A0
1D60
2130
4128
4120
8120
8120
8120
8120
8120
4120
2120
1120
0F20
0120
0120
0120
0120
0120
0120
0120
0120
0120
0120
0120
0120
0120
0120
0120
0120
0120
0120
0120
0120
0120
ENDCHAR
STARTCHAR 00B7
ENCODING 183
SWIDTH 235 0
DWIDTH 12 0
BBX 6 6 3 10
BITMAP
78
CC
84
84
CC
78
ENDCHAR
STARTCHAR 00B8
ENCODING 184
SWIDTH 509 0
DWIDTH 26 0
BBX 7 9 10 -9
BITMAP
10
10
10
1C
02
02
02
84
78
ENDCHAR
STARTCHAR 00B9
ENCODING 185
SWIDTH 235 0
DWIDTH 12 0
BBX 6 16 2 9
BITMAP
FC
04
04
04
04
04
04
04
04
04
04
04
04
04
04
04
ENDCHAR
STARTCHAR 00BA
ENCODING 186
SWIDTH 254 0
DWIDTH 13 0
BBX 11 10 1 15
BITMAP
1E00
6180
4080
8040
8040
4020
4020
2040
30C0
0F00
ENDCHAR
STARTCHAR 00BB
ENCODING 187
SWIDTH 254 0
DWIDTH 13 0
BBX 9 16 2 5
BITMAP
8800
8800
4400
4400
2200
1100
1100
0880
0880
1100
1100
2200
2200
4400
8800
8800
ENDCHAR
STARTCHAR 00BC
ENCODING 188
SWIDTH 549 0
DWIDTH 28 0
BBX 25 26 1 0
BITMAP
00002000
FC004000
04004000
04008000
04008000
04010000
04010000
04020000
04040000
04040000
04080000
04080200
04100600
04100A00
04201200
04402200
00404200
00804200
00808200
01010200
01020200
0203FF80
04000200
04000200
08000200
08000200
ENDCHAR
STARTCHAR 00BD
ENCODING 189
SWIDTH 549 0
DWIDTH 28 0
BBX 25 26 1 0
BITMAP
00001000
FC002000
04002000
04004000
04004000
04008000
04010000
04010000
04020000
04020000
04040000
04083C00
04084200
04108100
04208100
04200100
00400100
00400200
00800400
01000800
01001000
02002000
02004000
04004000
08008000
0801FF80
ENDCHAR
STARTCHAR 00BE
ENCODING 190
SWIDTH 549 0
DWIDTH 28 0
BBX 26 26 0 0
BITMAP
0E000800
11001000
20801000
00802000
00802000
06804000
01008000
06808000
00410000
00410000
00420100
00440300
80440500
80880900
61100900
1E101100
00202100
00204100
00404100
00808100
00810100
0101FFC0
01000100
02000100
04000100
04000100
ENDCHAR
STARTCHAR 00BF
ENCODING 191
SWIDTH 196 0
DWIDTH 10 0
BBX 6 31 2 -6
BITMAP
60
90
60
00
00
00
40
40
40
40
40
40
20
20
10
10
10
08
08
04
04
04
04
04
04
04
08
08
10
20
40
ENDCHAR
STARTCHAR 00C0
ENCODING 192
SWIDTH 549 0
DWIDTH 28 0
BBX 27 34 0 0
BITMAP
00200000
00100000
00080000
00040000
00020000
00000000
00000000
00000000
00000000
003F8000
01C07000
06000800
0C000600
18000300
30000180
20000080
40000040
40000040
80000060
80000020
80000020
80000220
80000220
80000220
80000220
40000240
40000240
20000240
30000280
10000300
0C000200
06000E00
01C03200
003FC200
ENDCHAR
STARTCHAR 00C1
ENCODING 193
SWIDTH 549 0
DWIDTH 28 0
BBX 27 34 0 0
BITMAP
00008000
00010000
00020000
00040000
00080000
00000000
00000000
00000000
00000000
003F8000
01C07000
06000800
0C000600
18000300
30000180
20000080
40000040
40000040
80000060
80000020
80000020
80000220
80000220
80000220
80000220
40000240
40000240
20000240
30000280
10000300
0C000200
06000E00
01C03200
003FC200
ENDCHAR
STARTCHAR 00C2
ENCODING 194
SWIDTH 549 0
DWIDTH 28 0
BBX 27 34 0 0
BITMAP
000C0000
00120000
00218000
00404000
00802000
00000000
00000000
00000000
00000000
003F8000
01C07000
06000800
0C000600
18000300
30000180
20000080
40000040
40000040
80000060
80000020
80000020
80000220
80000220
80000220
80000220
40000240
40000240
20000240
30000280
10000300
0C000200
06000E00
01C03200
003FC200
ENDCHAR
STARTCHAR 00C3
ENCODING 195
SWIDTH 549 0
DWIDTH 28 0
BBX 27 34 0 0
BITMAP
00701000
00881000
01042000
01022000
0001C000
00000000
00000000
00000000
00000000
003F8000
01C07000
06000800
0C000600
18000300
30000180
20000080
40000040
40000040
80000060
80000020
80000020
80000220
80000220
80000220
80000220
40000240
40000240
20000240
30000280
10000300
0C000200
06000E00
01C03200
003FC200
ENDCHAR
STARTCHAR 00C4
ENCODING 196
SWIDTH 549 0
DWIDTH 28 0
BBX 26 33 1 0
BITMAP
00804000
00804000
00804000
00000000
00000000
00000000
00000000
00000000
007F0000
0180E000
06001800
0C000C00
10000600
20000300
20000100
40000080
40000080
800000C0
80000040
80000040
80000440
80000440
80000440
80000440
40000480
40000480
20000480
20000500
10000600
08000400
06001C00
01806400
007F8400
ENDCHAR
STARTCHAR 00C5
ENCODING 197
SWIDTH 549 0
DWIDTH 28 0
BBX 27 35 0 0
BITMAP
000E0000
00110000
00208000
00208000
00208000
00110000
000E0000
00000000
00000000
00000000
003F8000
01C07000
06000800
0C000600
18000300
30000180
20000080
40000040
40000040
80000060
80000020
80000020
80000220
80000220
80000220
80000220
40000240
40000240
20000240
30000280
10000300
0C000200
06000E00
01C03200
003FC200
ENDCHAR
STARTCHAR 00C6
ENCODING 198
SWIDTH 1058 0
DWIDTH 54 0
BBX 53 25 1 0
BITMAP
003F80000FE000
01C07000701C00
06000C00800300
0C000603000180
18000306000040
30000184000020
20000088000020
40000050000010
40000050000010
80000060000008
80000020000008
80000020000008
80000221FFFFF8
80000220000000
80000220000000
80000220000000
40000250000000
40000250000000
20000248000000
30000284000000
10000306000000
0C000203000000
06000E00800080
01C03200700F00
003FC2000FF000
ENDCHAR
STARTCHAR 00C7
ENCODING 199
SWIDTH 470 0
DWIDTH 24 0
BBX 24 34 0 -9
BITMAP
003FC0
01C038
030006
0C0001
180000
300000
200000
400000
400000
800000
800000
800000
800000
800000
800000
800000
400000
400000
600000
300000
180000
0C0001
060006
03C038
00FFC0
000800
000800
000800
000C00
000300
000100
000100
004200
003C00
ENDCHAR
STARTCHAR 00C8
ENCODING 200
SWIDTH 549 0
DWIDTH 28 0
BBX 26 34 1 0
BITMAP
00400000
00200000
00100000
00080000
00040000
00000000
00000000
00000000
00000000
007F8000
01C06000
06001800
0C000400
10000200
30000100
20000100
40000080
40000080
80000040
80000040
80000040
8FFFFFC0
80000000
80000000
80000000
40000000
40000000
20000000
30000000
10000000
0C000000
06000400
01C03800
007FC000
ENDCHAR
STARTCHAR 00C9
ENCODING 201
SWIDTH 549 0
DWIDTH 28 0
BBX 26 34 1 0
BITMAP
00010000
00020000
00040000
00080000
00100000
00000000
00000000
00000000
00000000
007F8000
01C06000
06001800
0C000400
10000200
30000100
20000100
40000080
40000080
80000040
80000040
80000040
8FFFFFC0
80000000
80000000
80000000
40000000
40000000
20000000
30000000
10000000
0C000000
06000400
01C03800
007FC000
ENDCHAR
STARTCHAR 00CA
ENCODING 202
SWIDTH 549 0
DWIDTH 28 0
BBX 26 34 1 0
BITMAP
00180000
00240000
00430000
00808000
01004000
00000000
00000000
00000000
00000000
007F8000
01C06000
06001800
0C000400
10000200
30000100
20000100
40000080
40000080
80000040
80000040
80000040
8FFFFFC0
80000000
80000000
80000000
40000000
40000000
20000000
30000000
10000000
0C000000
06000400
01C03800
007FC000
ENDCHAR
STARTCHAR 00CB
ENCODING 203
SWIDTH 549 0
DWIDTH 28 0
BBX 27 33 1 0
BITMAP
00804000
00804000
00804000
00000000
00000000
00000000
00000000
00000000
003F8000
01C07000
06000800
0C000600
18000300
30000180
20000080
40000040
40000040
80000060
80000020
80000020
8FFFFFE0
80000000
80000000
80000000
40000000
40000000
20000000
30000000
10000000
0C000000
06000400
01C03800
007FC000
ENDCHAR
STARTCHAR 00CC
ENCODING 204
SWIDTH 78 0
DWIDTH 4 0
BBX 4 34 0 0
BITMAP
80
40
40
20
10
00
00
00
00
20
20
20
20
20
20
20
20
20
20
20
20
20
20
20
20
20
20
20
20
20
20
20
20
20
ENDCHAR
STARTCHAR 00CD
ENCODING 205
SWIDTH 78 0
DWIDTH 4 0
BBX 4 34 1 0
BITMAP
10
20
40
40
80
00
00
00
00
40
40
40
40
40
40
40
40
40
40
40
40
40
40
40
40
40
40
40
40
40
40
40
40
40
ENDCHAR
STARTCHAR 00CE
ENCODING 206
SWIDTH 78 0
DWIDTH 4 0
BBX 5 32 0 0
BITMAP
60
98
00
00
00
00
00
20
20
20
20
20
20
20
20
20
20
20
20
20
20
20
20
20
20
20
20
20
20
20
20
20
ENDCHAR
STARTCHAR 00CF
ENCODING 207
SWIDTH 78 0
DWIDTH 4 0
BBX 3 33 1 0
BITMAP
A0
A0
A0
00
00
00
00
00
40
40
40
40
40
40
40
40
40
40
40
40
40
40
40
40
40
40
40
40
40
40
40
40
40
ENDCHAR
STARTCHAR 00D0
ENCODING 208
SWIDTH 549 0
DWIDTH 28 0
BBX 27 34 0 0
BITMAP
00000200
00000200
00000200
0003FFC0
00000200
00000200
00000200
00000200
00000200
003F8200
01C07200
06000E00
0C000200
18000300
30000280
20000240
40000240
40000240
80000220
80000220
80000220
80000220
80000020
80000020
80000060
40000040
40000040
20000080
30000180
18000300
0C000600
06000C00
01C07000
003F8000
ENDCHAR
STARTCHAR 00D1
ENCODING 209
SWIDTH 392 0
DWIDTH 20 0
BBX 18 34 1 0
BITMAP
0E0200
110200
208400
204400
003800
000000
000000
000000
000000
83F000
8C0C00
900300
A00100
C00080
C00080
800040
800040
800040
800040
800040
800040
800040
800040
800040
800040
800040
800040
800040
800040
800040
800040
800040
800040
800040
ENDCHAR
STARTCHAR 00D2
ENCODING 210
SWIDTH 568 0
DWIDTH 29 0
BBX 27 34 1 0
BITMAP
00200000
00100000
00080000
00040000
00020000
00000000
00000000
00000000
00000000
007F8000
01806000
06001800
08000400
10000200
20000100
40000080
40000080
80000080
80000040
80000040
80000040
40000020
40000020
40000020
40000020
40000040
20000040
10000080
10000080
08000100
04000200
03000C00
00C03000
003FC000
ENDCHAR
STARTCHAR 00D3
ENCODING 211
SWIDTH 568 0
DWIDTH 29 0
BBX 27 34 1 0
BITMAP
00008000
00010000
00020000
00040000
00080000
00000000
00000000
00000000
00000000
007F8000
01806000
06001800
08000400
10000200
20000100
40000080
40000080
80000080
80000040
80000040
80000040
40000020
40000020
40000020
40000020
40000040
20000040
10000080
10000080
08000100
04000200
03000C00
00C03000
003FC000
ENDCHAR
STARTCHAR 00D4
ENCODING 212
SWIDTH 568 0
DWIDTH 29 0
BBX 27 34 1 0
BITMAP
000C0000
00120000
00218000
00404000
00802000
00000000
00000000
00000000
00000000
007F8000
01806000
06001800
08000400
10000200
20000100
40000080
40000080
80000080
80000040
80000040
80000040
40000020
40000020
40000020
40000020
40000040
20000040
10000080
10000080
08000100
04000200
03000C00
00C03000
003FC000
ENDCHAR
STARTCHAR 00D5
ENCODING 213
SWIDTH 568 0
DWIDTH 29 0
BBX 27 34 1 0
BITMAP
00701000
00881000
01042000
01022000
0001C000
00000000
00000000
00000000
00000000
007F8000
01806000
06001800
08000400
10000200
20000100
40000080
40000080
80000080
80000040
80000040
80000040
40000020
40000020
40000020
40000020
40000040
20000040
10000080
10000080
08000100
04000200
03000C00
00C03000
003FC000
ENDCHAR
STARTCHAR 00D6
ENCODING 214
SWIDTH 568 0
DWIDTH 29 0
BBX 27 33 1 0
BITMAP
00404000
00404000
00404000
00000000
00000000
00000000
00000000
00000000
007F8000
01806000
06001800
08000400
10000200
20000100
40000080
40000080
80000080
80000040
80000040
80000040
40000020
40000020
40000020
40000020
40000040
20000040
10000080
10000080
08000100
04000200
03000C00
00C03000
003FC000
ENDCHAR
STARTCHAR 00D7
ENCODING 215
SWIDTH 372 0
DWIDTH 19 0
BBX 15 15 2 5
BITMAP
8002
4004
2008
1010
0820
0440
0280
0100
0280
0440
0820
1010
2008
4004
8002
ENDCHAR
STARTCHAR 00D8
ENCODING 216
SWIDTH 568 0
DWIDTH 29 0
BBX 28 25 0 0
BITMAP
003FC200
01C03C00
06000400
08000A00
10001100
20002080
40002040
40004040
80008040
80010020
80010020
80020020
20040010
20080010
20080010
20100010
20200020
10400020
10400040
08800040
09000080
06000100
03000600
04E01800
081FE000
ENDCHAR
STARTCHAR 00D9
ENCODING 217
SWIDTH 392 0
DWIDTH 20 0
BBX 18 34 1 0
BITMAP
040000
020000
010000
008000
004000
000000
000000
000000
000000
800040
800040
800040
800040
800040
800040
800040
800040
800040
800040
800040
800040
800040
800040
800040
800040
800040
800040
800040
4000C0
4000C0
200140
300240
0C0C40
03F040
ENDCHAR
STARTCHAR 00DA
ENCODING 218
SWIDTH 392 0
DWIDTH 20 0
BBX 18 34 1 0
BITMAP
001000
002000
004000
008000
010000
000000
000000
000000
000000
800040
800040
800040
800040
800040
800040
800040
800040
800040
800040
800040
800040
800040
800040
800040
800040
800040
800040
800040
4000C0
4000C0
200140
300240
0C0C40
03F040
ENDCHAR
STARTCHAR 00DB
ENCODING 219
SWIDTH 392 0
DWIDTH 20 0
BBX 18 34 1 0
BITMAP
018000
024000
043000
080800
100400
000000
000000
000000
000000
800040
800040
800040
800040
800040
800040
800040
800040
800040
800040
800040
800040
800040
800040
800040
800040
800040
800040
800040
4000C0
4000C0
200140
300240
0C0C40
03F040
ENDCHAR
STARTCHAR 00DC
ENCODING 220
SWIDTH 392 0
DWIDTH 20 0
BBX 18 33 1 0
BITMAP
080400
080400
080400
000000
000000
000000
000000
000000
800040
800040
800040
800040
800040
800040
800040
800040
800040
800040
800040
800040
800040
800040
800040
800040
800040
800040
800040
4000C0
4000C0
200140
300240
0C0C40
03F040
ENDCHAR
STARTCHAR 00DD
ENCODING 221
SWIDTH 392 0
DWIDTH 20 0
BBX 18 43 1 -9
BITMAP
001000
002000
004000
008000
010000
000000
000000
000000
000000
800040
800040
800040
800040
800040
800040
800040
800040
800040
800040
800040
800040
800040
800040
800040
800040
800040
800040
800040
4000C0
4000C0
200140
300240
0C0C40
03F040
000040
000040
000040
000040
000040
000040
000040
000040
000040
ENDCHAR
STARTCHAR 00DE
ENCODING 222
SWIDTH 549 0
DWIDTH 28 0
BBX 27 43 1 -9
BITMAP
08000000
08000000
08000000
08000000
08000000
08000000
08000000
08000000
08000000
083F8000
09C07000
0E000C00
08000600
18000300
28000180
48000080
48000040
48000040
88000020
88000020
88000020
88000020
88000020
88000020
88000020
48000040
48000040
48000080
28000180
18000300
08000600
0E000C00
09807000
087FC000
08000000
08000000
08000000
08000000
08000000
08000000
08000000
08000000
08000000
ENDCHAR
STARTCHAR 00DF
ENCODING 223
SWIDTH 470 0
DWIDTH 24 0
BBX 23 34 0 0
BITMAP
00FC00
038380
0600C0
0C0060
080020
100030
100010
100010
100010
100010
100020
100020
101E40
100180
100360
101C10
100008
100008
100004
100004
100002
100002
100002
900002
900002
800002
800004
400004
40000C
200018
100030
0C0060
030180
00FE00
ENDCHAR
STARTCHAR 00E0
ENCODING 224
SWIDTH 549 0
DWIDTH 28 0
BBX 27 34 0 0
BITMAP
00200000
00100000
00080000
00040000
00020000
00000000
00000000
00000000
00000000
003F8000
01C07000
06000800
0C000600
18000300
30000180
20000080
40000040
40000040
80000060
80000020
80000020
80000220
80000220
80000220
80000220
40000240
40000240
20000240
30000280
10000300
0C000200
06000E00
01C03200
003FC200
ENDCHAR
STARTCHAR 00E1
ENCODING 225
SWIDTH 549 0
DWIDTH 28 0
BBX 27 34 0 0
BITMAP
00008000
00010000
00020000
00040000
00080000
00000000
00000000
00000000
00000000
003F8000
01C07000
06000800
0C000600
18000300
30000180
20000080
40000040
40000040
80000060
80000020
80000020
80000220
80000220
80000220
80000220
40000240
40000240
20000240
30000280
10000300
0C000200
06000E00
01C03200
003FC200
ENDCHAR
STARTCHAR 00E2
ENCODING 226
SWIDTH 549 0
DWIDTH 28 0
BBX 27 34 0 0
BITMAP
000C0000
00120000
00218000
00404000
00802000
00000000
00000000
00000000
00000000
003F8000
01C07000
06000800
0C000600
18000300
30000180
20000080
40000040
40000040
80000060
80000020
80000020
80000220
80000220
80000220
80000220
40000240
40000240
20000240
30000280
10000300
0C000200
06000E00
01C03200
003FC200
ENDCHAR
STARTCHAR 00E3
ENCODING 227
SWIDTH 549 0
DWIDTH 28 0
BBX 27 34 0 0
BITMAP
00701000
00881000
01042000
01022000
0001C000
00000000
00000000
00000000
00000000
003F8000
01C07000
06000800
0C000600
18000300
30000180
20000080
40000040
40000040
80000060
80000020
80000020
80000220
80000220
80000220
80000220
40000240
40000240
20000240
30000280
10000300
0C000200
06000E00
01C03200
003FC200
ENDCHAR
STARTCHAR 00E4
ENCODING 228
SWIDTH 549 0
DWIDTH 28 0
BBX 26 33 1 0
BITMAP
00804000
00804000
00804000
00000000
00000000
00000000
00000000
00000000
007F0000
0180E000
06001800
0C000C00
10000600
20000300
20000100
40000080
40000080
800000C0
80000040
80000040
80000440
80000440
80000440
80000440
40000480
40000480
20000480
20000500
10000600
08000400
06001C00
01806400
007F8400
ENDCHAR
STARTCHAR 00E5
ENCODING 229
SWIDTH 549 0
DWIDTH 28 0
BBX 27 35 0 0
BITMAP
000E0000
00110000
00208000
00208000
00208000
00110000
000E0000
00000000
00000000
00000000
003F8000
01C07000
06000800
0C000600
18000300
30000180
20000080
40000040
40000040
80000060
80000020
80000020
80000220
80000220
80000220
80000220
40000240
40000240
20000240
30000280
10000300
0C000200
06000E00
01C03200
003FC200
ENDCHAR
STARTCHAR 00E6
ENCODING 230
SWIDTH 1058 0
DWIDTH 54 0
BBX 53 25 1 0
BITMAP
003F80000FE000
01C07000701C00
06000C00800300
0C000603000180
18000306000040
30000184000020
20000088000020
40000050000010
40000050000010
80000060000008
80000020000008
80000020000008
80000221FFFFF8
80000220000000
80000220000000
80000220000000
40000250000000
40000250000000
20000248000000
30000284000000
10000306000000
0C000203000000
06000E00800080
01C03200700F00
003FC2000FF000
ENDCHAR
STARTCHAR 00E7
ENCODING 231
SWIDTH 470 0
DWIDTH 24 0
BBX 24 34 0 -9
BITMAP
003FC0
01C038
030006
0C0001
180000
300000
200000
400000
400000
800000
800000
800000
800000
800000
800000
800000
400000
400000
600000
300000
180000
0C0001
060006
03C038
00FFC0
000800
000800
000800
000C00
000300
000100
000100
004200
003C00
ENDCHAR
STARTCHAR 00E8
ENCODING 232
SWIDTH 549 0
DWIDTH 28 0
BBX 26 34 1 0
BITMAP
00400000
00200000
00100000
00080000
00040000
00000000
00000000
00000000
00000000
007F8000
01C06000
06001800
0C000400
10000200
30000100
20000100
40000080
40000080
80000040
80000040
80000040
8FFFFFC0
80000000
80000000
80000000
40000000
40000000
20000000
30000000
10000000
0C000000
06000400
01C03800
007FC000
ENDCHAR
STARTCHAR 00E9
ENCODING 233
SWIDTH 549 0
DWIDTH 28 0
BBX 26 34 1 0
BITMAP
00010000
00020000
00040000
00080000
00100000
00000000
00000000
00000000
00000000
007F8000
01C06000
06001800
0C000400
10000200
30000100
20000100
40000080
40000080
80000040
80000040
80000040
8FFFFFC0
80000000
80000000
80000000
40000000
40000000
20000000
30000000
10000000
0C000000
06000400
01C03800
007FC000
ENDCHAR
STARTCHAR 00EA
ENCODING 234
SWIDTH 549 0
DWIDTH 28 0
BBX 26 34 1 0
BITMAP
00180000
00240000
00430000
00808000
01004000
00000000
00000000
00000000
00000000
007F8000
01C06000
06001800
0C000400
10000200
30000100
20000100
40000080
40000080
80000040
80000040
80000040
8FFFFFC0
80000000
80000000
80000000
40000000
40000000
20000000
30000000
10000000
0C000000
06000400
01C03800
007FC000
ENDCHAR
STARTCHAR 00EB
ENCODING 235
SWIDTH 549 0
DWIDTH 28 0
BBX 27 33 1 0
BITMAP
00804000
00804000
00804000
00000000
00000000
00000000
00000000
00000000
003F8000
01C07000
06000800
0C000600
18000300
30000180
20000080
40000040
40000040
80000060
80000020
80000020
8FFFFFE0
80000000
80000000
80000000
40000000
40000000
20000000
30000000
10000000
0C000000
06000400
01C03800
007FC000
ENDCHAR
STARTCHAR 00EC
ENCODING 236
SWIDTH 78 0
DWIDTH 4 0
BBX 4 34 0 0
BITMAP
80
40
40
20
10
00
00
00
00
20
20
20
20
20
20
20
20
20
20
20
20
20
20
20
20
20
20
20
20
20
20
20
20
20
ENDCHAR
STARTCHAR 00ED
ENCODING 237
SWIDTH 78 0
DWIDTH 4 0
BBX 4 34 1 0
BITMAP
10
20
40
40
80
00
00
00
00
40
40
40
40
40
40
40
40
40
40
40
40
40
40
40
40
40
40
40
40
40
40
40
40
40
ENDCHAR
STARTCHAR 00EE
ENCODING 238
SWIDTH 78 0
DWIDTH 4 0
BBX 5 32 0 0
BITMAP
60
98
00
00
00
00
00
20
20
20
20
20
20
20
20
20
20
20
20
20
20
20
20
20
20
20
20
20
20
20
20
20
ENDCHAR
STARTCHAR 00EF
ENCODING 239
SWIDTH 78 0
DWIDTH 4 0
BBX 3 33 1 0
BITMAP
A0
A0
A0
00
00
00
00
00
40
40
40
40
40
40
40
40
40
40
40
40
40
40
40
40
40
40
40
40
40
40
40
40
40
ENDCHAR
STARTCHAR 00F0
ENCODING 240
SWIDTH 549 0
DWIDTH 28 0
BBX 27 34 0 0
BITMAP
00000200
00000200
00000200
0003FFC0
00000200
00000200
00000200
00000200
00000200
003F8200
01C07200
06000E00
0C000200
18000300
30000280
20000240
40000240
40000240
80000220
80000220
80000220
80000220
80000020
80000020
80000060
40000040
40000040
20000080
30000180
18000300
0C000600
06000C00
01C07000
003F8000
ENDCHAR
STARTCHAR 00F1
ENCODING 241
SWIDTH 392 0
DWIDTH 20 0
BBX 18 34 1 0
BITMAP
0E0200
110200
208400
204400
003800
000000
000000
000000
000000
83F000
8C0C00
900300
A00100
C00080
C00080
800040
800040
800040
800040
800040
800040
800040
800040
800040
800040
800040
800040
800040
800040
800040
800040
800040
800040
800040
ENDCHAR
STARTCHAR 00F2
ENCODING 242
SWIDTH 568 0
DWIDTH 29 0
BBX 27 34 1 0
BITMAP
00200000
00100000
00080000
00040000
00020000
00000000
00000000
00000000
00000000
007F8000
01806000
06001800
08000400
10000200
20000100
40000080
40000080
80000080
80000040
80000040
80000040
40000020
40000020
40000020
40000020
40000040
20000040
10000080
10000080
08000100
04000200
03000C00
00C03000
003FC000
ENDCHAR
STARTCHAR 00F3
ENCODING 243
SWIDTH 568 0
DWIDTH 29 0
BBX 27 34 1 0
BITMAP
00008000
00010000
00020000
00040000
00080000
00000000
00000000
00000000
00000000
007F8000
01806000
06001800
08000400
10000200
20000100
40000080
40000080
80000080
80000040
80000040
80000040
40000020
40000020
40000020
40000020
40000040
20000040
10000080
10000080
08000100
04000200
03000C00
00C03000
003FC000
ENDCHAR
STARTCHAR 00F4
ENCODING 244
SWIDTH 568 0
DWIDTH 29 0
BBX 27 34 1 0
BITMAP
000C0000
00120000
00218000
00404000
00802000
00000000
00000000
00000000
00000000
007F8000
01806000
06001800
08000400
10000200
20000100
40000080
40000080
80000080
80000040
80000040
80000040
40000020
40000020
40000020
40000020
40000040
20000040
10000080
10000080
08000100
04000200
03000C00
00C03000
003FC000
ENDCHAR
STARTCHAR 00F5
ENCODING 245
SWIDTH 568 0
DWIDTH 29 0
BBX 27 34 1 0
BITMAP
00701000
00881000
01042000
01022000
0001C000
00000000
00000000
00000000
00000000
007F8000
01806000
06001800
08000400
10000200
20000100
40000080
40000080
80000080
80000040
80000040
80000040
40000020
40000020
40000020
40000020
40000040
20000040
10000080
10000080
08000100
04000200
03000C00
00C03000
003FC000
ENDCHAR
STARTCHAR 00F6
ENCODING 246
SWIDTH 568 0
DWIDTH 29 0
BBX 27 33 1 0
BITMAP
00404000
00404000
00404000
00000000
00000000
00000000
00000000
00000000
007F8000
01806000
06001800
08000400
10000200
20000100
40000080
40000080
80000080
80000040
80000040
80000040
40000020
40000020
40000020
40000020
40000040
20000040
10000080
10000080
08000100
04000200
03000C00
00C03000
003FC000
ENDCHAR
STARTCHAR 00F7
ENCODING 247
SWIDTH 372 0
DWIDTH 19 0
BBX 17 17 1 4
BITMAP
018000
014000
014000
00C000
000000
000000
000000
000000
FFFF80
000000
000000
000000
000000
018000
014000
014000
00C000
ENDCHAR
STARTCHAR 00F8
ENCODING 248
SWIDTH 568 0
DWIDTH 29 0
BBX 28 25 0 0
BITMAP
003FC200
01C03C00
06000400
08000A00
10001100
20002080
40002040
40004040
80008040
80010020
80010020
80020020
20040010
20080010
20080010
20100010
20200020
10400020
10400040
08800040
09000080
06000100
03000600
04E01800
081FE000
ENDCHAR
STARTCHAR 00F9
ENCODING 249
SWIDTH 392 0
DWIDTH 20 0
BBX 18 34 1 0
BITMAP
040000
020000
010000
008000
004000
000000
000000
000000
000000
800040
800040
800040
800040
800040
800040
800040
800040
800040
800040
800040
800040
800040
800040
800040
800040
800040
800040
800040
4000C0
4000C0
200140
300240
0C0C40
03F040
ENDCHAR
STARTCHAR 00FA
ENCODING 250
SWIDTH 392 0
DWIDTH 20 0
BBX 18 34 1 0
BITMAP
001000
002000
004000
008000
010000
000000
000000
000000
000000
800040
800040
800040
800040
800040
800040
800040
800040
800040
800040
800040
800040
800040
800040
800040
800040
800040
800040
800040
4000C0
4000C0
200140
300240
0C0C40
03F040
ENDCHAR
STARTCHAR 00FB
ENCODING 251
SWIDTH 392 0
DWIDTH 20 0
BBX 18 34 1 0
BITMAP
018000
024000
043000
080800
100400
000000
000000
000000
000000
800040
800040
800040
800040
800040
800040
800040
800040
800040
800040
800040
800040
800040
800040
800040
800040
800040
800040
800040
4000C0
4000C0
200140
300240
0C0C40
03F040
ENDCHAR
STARTCHAR 00FC
ENCODING 252
SWIDTH 392 0
DWIDTH 20 0
BBX 18 33 1 0
BITMAP
080400
080400
080400
000000
000000
000000
000000
000000
800040
800040
800040
800040
800040
800040
800040
800040
800040
800040
800040
800040
800040
800040
800040
800040
800040
800040
800040
4000C0
4000C0
200140
300240
0C0C40
03F040
ENDCHAR
STARTCHAR 00FD
ENCODING 253
SWIDTH 392 0
DWIDTH 20 0
BBX 18 43 1 -9
BITMAP
001000
002000
004000
008000
010000
000000
000000
000000
000000
800040
800040
800040
800040
800040
800040
800040
800040
800040
800040
800040
800040
800040
800040
800040
800040
800040
800040
800040
4000C0
4000C0
200140
300240
0C0C40
03F040
000040
000040
000040
000040
000040
000040
000040
000040
000040
ENDCHAR
STARTCHAR 00FE
ENCODING 254
SWIDTH 549 0
DWIDTH 28 0
BBX 27 43 1 -9
BITMAP
08000000
08000000
08000000
08000000
08000000
08000000
08000000
08000000
08000000
083F8000
09C07000
0E000C00
08000600
18000300
28000180
48000080
48000040
48000040
88000020
88000020
88000020
88000020
88000020
88000020
88000020
48000040
48000040
48000080
28000180
18000300
08000600
0E000C00
09807000
087FC000
08000000
08000000
08000000
08000000
08000000
08000000
08000000
08000000
08000000
ENDCHAR
STARTCHAR 00FF
ENCODING 255
SWIDTH 392 0
DWIDTH 20 0
BBX 18 42 1 -9
BITMAP
080400
080400
080400
000000
000000
000000
000000
000000
800040
800040
800040
800040
800040
800040
800040
800040
800040
800040
800040
800040
800040
800040
800040
800040
800040
800040
800040
4000C0
4000C0
200140
300240
0C0C40
03F040
000040
000040
000040
000040
000040
000040
000040
000040
000040
ENDCHAR
STARTCHAR 0106
ENCODING 262
SWIDTH 470 0
DWIDTH 24 0
BBX 23 34 1 0
BITMAP
000100
000200
000400
000800
001000
000000
000000
000000
000000
003F80
01C070
06000C
0C0002
100000
300000
200000
400000
400000
800000
800000
800000
800000
800000
800000
800000
400000
400000
200000
300000
100000
0C0002
06000C
01C070
003F80
ENDCHAR
STARTCHAR 0107
ENCODING 263
SWIDTH 470 0
DWIDTH 24 0
BBX 23 34 1 0
BITMAP
000100
000200
000400
000800
001000
000000
000000
000000
000000
003F80
01C070
06000C
0C0002
100000
300000
200000
400000
400000
800000
800000
800000
800000
800000
800000
800000
400000
400000
200000
300000
100000
0C0002
06000C
01C070
003F80
ENDCHAR
STARTCHAR 010C
ENCODING 268
SWIDTH 470 0
DWIDTH 24 0
BBX 23 34 1 0
BITMAP
010040
008080
004100
002600
001800
000000
000000
000000
000000
003F80
01C070
06000C
0C0002
100000
300000
200000
400000
400000
800000
800000
800000
800000
800000
800000
800000
400000
400000
200000
300000
100000
0C0002
06000C
01C070
003F80
ENDCHAR
STARTCHAR 010D
ENCODING 269
SWIDTH 470 0
DWIDTH 24 0
BBX 23 34 1 0
BITMAP
010040
008080
004100
002600
001800
000000
000000
000000
000000
003F80
01C070
06000C
0C0002
100000
300000
200000
400000
400000
800000
800000
800000
800000
800000
800000
800000
400000
400000
200000
300000
100000
0C0002
06000C
01C070
003F80
ENDCHAR
STARTCHAR 0111
ENCODING 273
SWIDTH 549 0
DWIDTH 28 0
BBX 27 34 0 0
BITMAP
00000200
00000200
00000200
0003FFC0
00000200
00000200
00000200
00000200
00000200
003F8200
01C07200
06000E00
0C000200
18000300
30000280
20000240
40000240
40000240
80000220
80000220
80000220
80000220
80000020
80000020
80000060
40000040
40000040
20000080
30000180
18000300
0C000600
06000C00
01C07000
003F8000
ENDCHAR
STARTCHAR 011E
ENCODING 286
SWIDTH 549 0
DWIDTH 28 0
BBX 27 43 0 -9
BITMAP
00801000
00801000
00402000
00204000
001F8000
00000000
00000000
00000000
00000000
003F8000
01C07000
06000C00
0C000600
18000300
30000180
20000080
40000040
40000040
80000060
80000020
80000020
80000220
80000220
80000220
80000220
40000240
40000240
20000240
30000280
10000300
0C000200
06000E00
01C03200
003FC200
04000200
04000200
04000200
04000400
02000400
01000800
00801000
00606000
001F8000
ENDCHAR
STARTCHAR 011F
ENCODING 287
SWIDTH 549 0
DWIDTH 28 0
BBX 27 43 0 -9
BITMAP
00801000
00801000
00402000
00204000
001F8000
00000000
00000000
00000000
00000000
003F8000
01C07000
06000C00
0C000600
18000300
30000180
20000080
40000040
40000040
80000060
80000020
80000020
80000220
80000220
80000220
80000220
40000240
40000240
20000240
30000280
10000300
0C000200
06000E00
01C03200
003FC200
04000200
04000200
04000200
04000400
02000400
01000800
00801000
00606000
001F8000
ENDCHAR
STARTCHAR 0130
ENCODING 304
SWIDTH 78 0
DWIDTH 4 0
BBX 1 33 2 0
BITMAP
80
80
80
00
00
00
00
00
80
80
80
80
80
80
80
80
80
80
80
80
80
80
80
80
80
80
80
80
80
80
80
80
80
ENDCHAR
STARTCHAR 0131
ENCODING 305
SWIDTH 78 0
DWIDTH 4 0
BBX 5 31 0 0
BITMAP
70
88
88
70
00
00
20
20
20
20
20
20
20
20
20
20
20
20
20
20
20
20
20
20
20
20
20
20
20
20
20
ENDCHAR
STARTCHAR 0141
ENCODING 321
SWIDTH 98 0
DWIDTH 5 0
BBX 5 34 0 0
BITMAP
20
20
20
20
20
20
20
20
20
20
20
20
20
28
30
20
60
A0
20
20
20
20
20
20
20
20
20
20
20
20
20
20
20
20
ENDCHAR
STARTCHAR 0142
ENCODING 322
SWIDTH 98 0
DWIDTH 5 0
BBX 5 34 0 0
BITMAP
20
20
20
20
20
20
20
20
20
20
20
20
20
28
30
20
60
A0
20
20
20
20
20
20
20
20
20
20
20
20
20
20
20
20
ENDCHAR
STARTCHAR 0152
ENCODING 338
SWIDTH 1058 0
DWIDTH 54 0
BBX 52 25 1 0
BITMAP
007F80001FC000
0180E000E03800
06001801000600
0C000C02000100
10000204000080
30000308000040
20000190000040
400000A0000020
400000E0000020
80000040000010
80000040000010
80000040000010
80000043FFFFF0
80000040000000
80000040000000
80000040000000
400000E0000000
400000A0000000
20000190000000
20000108000000
10000204000000
08000C02000000
06001801000100
0180E000E01E00
007F80001FE000
ENDCHAR
STARTCHAR 0153
ENCODING 339
SWIDTH 1058 0
DWIDTH 54 0
BBX 52 25 1 0
BITMAP
007F80001FC000
0180E000E03800
06001801000600
0C000C02000100
10000204000080
30000308000040
20000190000040
400000A0000020
400000E0000020
80000040000010
80000040000010
80000040000010
80000043FFFFF0
80000040000000
80000040000000
80000040000000
400000E0000000
400000A0000000
20000190000000
20000108000000
10000204000000
08000C02000000
06001801000100
0180E000E01E00
007F80001FE000
ENDCHAR
STARTCHAR 015E
ENCODING 350
SWIDTH 352 0
DWIDTH 18 0
BBX 17 34 1 -9
BITMAP
07E000
0C1800
300400
200400
400200
400200
400000
400000
400000
20E000
201800
180600
070200
000100
000100
000080
000080
800080
800080
800080
800100
400100
200200
100400
0C1800
03E000
008000
008000
00C000
003000
001000
001000
042000
03C000
ENDCHAR
STARTCHAR 015F
ENCODING 351
SWIDTH 352 0
DWIDTH 18 0
BBX 17 34 1 -9
BITMAP
07E000
0C1800
300400
200400
400200
400200
400000
400000
400000
20E000
201800
180600
070200
000100
000100
000080
000080
800080
800080
800080
800100
400100
200200
100400
0C1800
03E000
008000
008000
00C000
003000
001000
001000
042000
03C000
ENDCHAR
STARTCHAR 0160
ENCODING 352
SWIDTH 352 0
DWIDTH 18 0
BBX 17 34 1 0
BITMAP
200800
101000
082000
04C000
030000
000000
000000
000000
000000
07E000
0C1800
300400
200400
400200
400200
400000
400000
400000
20E000
201800
180600
070200
000100
000080
000080
000080
800080
800080
800180
400100
400300
300600
081800
07E000
ENDCHAR
STARTCHAR 0161
ENCODING 353
SWIDTH 352 0
DWIDTH 18 0
BBX 17 34 1 0
BITMAP
200800
101000
082000
04C000
030000
000000
000000
000000
000000
07E000
0C1800
300400
200400
400200
400200
400000
400000
400000
20E000
201800
180600
070200
000100
000080
000080
000080
800080
800080
800180
400100
400300
300600
081800
07E000
ENDCHAR
STARTCHAR 0178
ENCODING 376
SWIDTH 392 0
DWIDTH 20 0
BBX 18 42 1 -9
BITMAP
080400
080400
080400
000000
000000
000000
000000
000000
800040
800040
800040
800040
800040
800040
800040
800040
800040
800040
800040
800040
800040
800040
800040
800040
800040
800040
800040
4000C0
4000C0
200140
300240
0C0C40
03F040
000040
000040
000040
000040
000040
000040
000040
000040
000040
ENDCHAR
STARTCHAR 017D
ENCODING 381
SWIDTH 333 0
DWIDTH 17 0
BBX 16 34 1 0
BITMAP
2008
1010
0820
04C0
0300
0000
0000
0000
0000
FFFE
0004
0004
0008
0008
0010
0020
0020
0040
0080
0080
0100
0100
0200
0400
0400
0800
1000
1000
2000
2000
4000
8000
8000
FFFF
ENDCHAR
STARTCHAR 017E
ENCODING 382
SWIDTH 333 0
DWIDTH 17 0
BBX 16 34 1 0
BITMAP
2008
1010
0820
04C0
0300
0000
0000
0000
0000
FFFE
0004
0004
0008
0008
0010
0020
0020
0040
0080
0080
0100
0100
0200
0400
0400
0800
1000
1000
2000
2000
4000
8000
8000
FFFF
ENDCHAR
STARTCHAR 0192
ENCODING 402
SWIDTH 313 0
DWIDTH 16 0
BBX 19 37 -2 -8
BITMAP
0000E0
000100
000200
000400
000400
000800
000800
000800
001000
001000
001000
01FF00
001000
002000
002000
002000
004000
004000
004000
004000
008000
008000
008000
008000
010000
010000
010000
010000
020000
020000
020000
040000
040000
040000
080000
100000
E00000
ENDCHAR
STARTCHAR 02C6
ENCODING 710
SWIDTH 509 0
DWIDTH 26 0
BBX 11 5 7 29
BITMAP
0C00
1200
2180
4040
8020
ENDCHAR
STARTCHAR 02C7
ENCODING 711
SWIDTH 509 0
DWIDTH 26 0
BBX 11 5 7 29
BITMAP
8020
4040
2080
1300
0C00
ENDCHAR
STARTCHAR 02C9
ENCODING 713
SWIDTH 509 0
DWIDTH 26 0
BBX 12 1 7 31
BITMAP
FFF0
ENDCHAR
STARTCHAR 02D8
ENCODING 728
SWIDTH 509 0
DWIDTH 26 0
BBX 12 5 7 29
BITMAP
8010
8010
4020
2040
1F80
ENDCHAR
STARTCHAR 02D9
ENCODING 729
SWIDTH 509 0
DWIDTH 26 0
BBX 1 3 12 30
BITMAP
80
80
80
ENDCHAR
STARTCHAR 02DA
ENCODING 730
SWIDTH 509 0
DWIDTH 26 0
BBX 7 7 9 28
BITMAP
38
44
82
82
82
44
38
ENDCHAR
STARTCHAR 02DB
ENCODING 731
SWIDTH 509 0
DWIDTH 26 0
BBX 6 8 17 -6
BITMAP
40
80
80
80
80
C0
60
3C
ENDCHAR
STARTCHAR 02DC
ENCODING 732
SWIDTH 509 0
DWIDTH 26 0
BBX 13 5 6 29
BITMAP
3808
4408
8210
8110
00E0
ENDCHAR
STARTCHAR 02DD
ENCODING 733
SWIDTH 509 0
DWIDTH 26 0
BBX 7 5 11 29
BITMAP
12
24
48
48
90
ENDCHAR
STARTCHAR 03C0
ENCODING 960
SWIDTH 509 0
DWIDTH 26 0
BBX 24 24 1 0
BITMAP
FFFFFF
080010
080010
080010
080010
080010
080010
080010
080010
080010
080010
080010
080010
080010
080010
080010
080010
080010
080010
080010
080010
080010
080010
080010
ENDCHAR
STARTCHAR 2013
ENCODING 8211
SWIDTH 411 0
DWIDTH 21 0
BBX 17 1 2 13
BITMAP
FFFF80
ENDCHAR
STARTCHAR 2014
ENCODING 8212
SWIDTH 568 0
DWIDTH 29 0
BBX 29 1 0 13
BITMAP
FFFFFFF8
ENDCHAR
STARTCHAR 2018
ENCODING 8216
SWIDTH 196 0
DWIDTH 10 0
BBX 6 9 2 25
BITMAP
80
80
40
20
20
10
08
08
04
ENDCHAR
STARTCHAR 2019
ENCODING 8217
SWIDTH 196 0
DWIDTH 10 0
BBX 6 9 2 25
BITMAP
04
08
08
10
20
20
40
80
80
ENDCHAR
STARTCHAR 201A
ENCODING 8218
SWIDTH 196 0
DWIDTH 10 0
BBX 6 8 2 -4
BITMAP
04
08
10
10
20
40
40
80
ENDCHAR
STARTCHAR 201C
ENCODING 8220
SWIDTH 254 0
DWIDTH 13 0
BBX 9 9 2 25
BITMAP
9000
9000
4800
2400
2400
1200
0900
0900
0480
ENDCHAR
STARTCHAR 201D
ENCODING 8221
SWIDTH 254 0
DWIDTH 13 0
BBX 9 9 2 25
BITMAP
0480
0900
0900
1200
2400
2400
4800
9000
9000
ENDCHAR
STARTCHAR 201E
ENCODING 8222
SWIDTH 254 0
DWIDTH 13 0
BBX 9 8 2 -4
BITMAP
0480
0900
1200
1200
2400
4800
4800
9000
ENDCHAR
STARTCHAR 2020
ENCODING 8224
SWIDTH 294 0
DWIDTH 15 0
BBX 15 34 0 -9
BITMAP
0100
0100
0100
0100
0100
FFFE
0100
0100
0100
0100
0100
0100
0100
0100
0100
0100
0100
0100
0100
0100
0100
0100
0100
0100
0100
0100
0100
0100
0100
0100
0100
0100
0100
0100
ENDCHAR
STARTCHAR 2021
ENCODING 8225
SWIDTH 294 0
DWIDTH 15 0
BBX 15 34 0 -9
BITMAP
0100
0100
0100
0100
0100
FFFE
0100
0100
0100
0100
0100
0100
0100
0100
0100
0100
0100
0100
0100
0100
0100
0100
0100
0100
0100
0100
0100
FFFE
0100
0100
0100
0100
0100
0100
ENDCHAR
STARTCHAR 2022
ENCODING 8226
SWIDTH 666 0
DWIDTH 34 0
BBX 14 14 10 10
BITMAP
0FC0
1FE0
3FF0
7FF8
FFFC
FFFC
FFFC
FFFC
FFFC
FFFC
7FF8
3FF0
1FE0
0FC0
ENDCHAR
STARTCHAR 2026
ENCODING 8230
SWIDTH 647 0
DWIDTH 33 0
BBX 26 4 3 0
BITMAP
700C0180
88120240
88120240
700C0180
ENDCHAR
STARTCHAR 2030
ENCODING 8240
SWIDTH 843 0
DWIDTH 43 0
BBX 41 25 1 0
BITMAP
0F8008000000
306010000000
603010000000
401020000000
800840000000
800840000000
800880000000
800880000000
401100000000
603200000000
306200000000
0F8400000000
00087E00F800
000883030600
001300C60300
002200440100
002400280080
004400280080
004400280080
008400280080
010400280080
010200440100
020300C60300
040181830600
04007E00F800
ENDCHAR
STARTCHAR 2039
ENCODING 8249
SWIDTH 176 0
DWIDTH 9 0
BBX 5 16 2 5
BITMAP
08
10
10
20
20
40
40
80
80
80
40
40
20
10
10
08
ENDCHAR
STARTCHAR 203A
ENCODING 8250
SWIDTH 176 0
DWIDTH 9 0
BBX 5 16 2 5
BITMAP
80
80
40
40
20
10
10
08
08
10
10
20
20
40
80
80
ENDCHAR
STARTCHAR 20A3
ENCODING 8355
SWIDTH 470 0
DWIDTH 24 0
BBX 23 30 0 0
BITMAP
080000
080000
080000
080000
080000
FFFFFC
080000
080000
080000
080000
080000
080000
080000
080406
080418
080460
080480
0FE500
080500
080600
080600
080400
080400
080400
080400
080400
080400
080400
080400
080400
ENDCHAR
STARTCHAR 2122
ENCODING 8482
SWIDTH 529 0
DWIDTH 27 0
BBX 26 18 0 10
BITMAP
20000000
20000000
20000000
FFDE3E00
20614300
20408080
20814040
20814040
20814040
20814040
20814040
20814040
20814040
20814040
20814040
20814040
20814040
20814040
ENDCHAR
STARTCHAR 2126
ENCODING 8486
SWIDTH 666 0
DWIDTH 34 0
BBX 32 35 1 -1
BITMAP
000FF000
00700E00
01800180
030000C0
04000020
08000010
10000008
3000000C
20000004
60000006
40000002
40000002
80000003
80000001
80000001
80000001
80000001
80000001
80000001
80000001
80000001
40000002
40000002
40000002
20000004
3000000C
10000008
08000010
04000020
02000040
01000080
00800100
00600600
00100800
FFF81FFF
ENDCHAR
STARTCHAR 2202
ENCODING 8706
SWIDTH 509 0
DWIDTH 26 0
BBX 21 34 2 0
BITMAP
1C0000
038000
006000
001000
000C00
000600
000200
000100
000080
000040
000040
000020
00FC20
0703A0
0C00D0
100070
200030
600018
400018
400008
800008
800008
800008
800008
800008
800008
400010
400010
600010
200020
100040
080080
060300
01FC00
ENDCHAR
STARTCHAR 2206
ENCODING 8710
SWIDTH 607 0
DWIDTH 31 0
BBX 30 34 0 1
BITMAP
00010000
00030000
00028000
00048000
00044000
00084000
00082000
00182000
00102000
00101000
00201000
00200800
00400800
00400400
00C00400
00800400
01800200
01000200
01000100
02000100
02000080
06000080
04000080
0C000040
08000040
18000020
10000020
10000020
30000010
20000010
60000008
40000008
C0000004
FFFFFFFC
ENDCHAR
STARTCHAR 220F
ENCODING 8719
SWIDTH 666 0
DWIDTH 34 0
BBX 30 51 2 -13
BITMAP
FFFFFFFC
08000040
08000040
08000040
08000040
08000040
08000040
08000040
08000040
08000040
08000040
08000040
08000040
08000040
08000040
08000040
08000040
08000040
08000040
08000040
08000040
08000040
08000040
08000040
08000040
08000040
08000040
08000040
08000040
08000040
08000040
08000040
08000040
08000040
08000040
08000040
08000040
08000040
08000040
08000040
08000040
08000040
08000040
08000040
08000040
08000040
08000040
08000040
08000040
08000040
FF8007FC
ENDCHAR
STARTCHAR 2211
ENCODING 8721
SWIDTH 666 0
DWIDTH 34 0
BBX 28 51 2 -14
BITMAP
FFFFFFE0
80000020
40000020
40000020
20000020
30000020
10000020
08000020
08000020
04000020
04000020
02000000
02000000
01000000
01800000
00800000
00C00000
00400000
00600000
00200000
00100000
00100000
00080000
000C0000
000C0000
00080000
00180000
00100000
00300000
00200000
00600000
00400000
00400000
00800000
00800000
01000000
01000000
02000000
02000000
04000000
04000000
08000010
08000010
10000010
10000010
20000010
20000010
40000010
40000010
80000010
FFFFFFF0
ENDCHAR
STARTCHAR 2212
ENCODING 8722
SWIDTH 372 0
DWIDTH 19 0
BBX 17 1 1 12
BITMAP
FFFF80
ENDCHAR
STARTCHAR 2215
ENCODING 8725
SWIDTH 58 0
DWIDTH 3 0
BBX 16 26 -6 0
BITMAP
0001
0002
0002
0004
0004
0008
0010
0010
0020
0020
0040
0080
0080
0100
0200
0200
0400
0400
0800
1000
1000
2000
2000
4000
8000
8000
ENDCHAR
STARTCHAR 2219
ENCODING 8729
SWIDTH 235 0
DWIDTH 12 0
BBX 6 6 3 10
BITMAP
78
CC
84
84
CC
78
ENDCHAR
STARTCHAR 221A
ENCODING 8730
SWIDTH 666 0
DWIDTH 34 0
BBX 34 42 0 0
BITMAP
000003FFC0
0000020000
0000020000
0000040000
0000040000
0000040000
0000080000
0000080000
0000080000
0000100000
0000100000
0000100000
0000200000
0000200000
0000200000
0000400000
0000400000
0000400000
0000800000
0000800000
0000800000
0001000000
0001000000
0001000000
F802000000
0802000000
0802000000
0C04000000
0404000000
0404000000
060C000000
0208000000
0208000000
0218000000
0110000000
0110000000
0130000000
00A0000000
00A0000000
00E0000000
0040000000
0040000000
ENDCHAR
STARTCHAR 221E
ENCODING 8734
SWIDTH 666 0
DWIDTH 34 0
BBX 32 15 1 10
BITMAP
0FC003F0
18700E18
20181804
400C3002
C0042002
80024001
80018001
80018001
80018001
80024001
40066003
400C3002
20181804
18300C08
0FC003F0
ENDCHAR
STARTCHAR 222B
ENCODING 8747
SWIDTH 509 0
DWIDTH 26 0
BBX 11 51 7 -13
BITMAP
01E0
0200
0400
0400
0400
0400
0400
0400
0400
0400
0400
0400
0400
0400
0400
0400
0400
0400
0400
0400
0400
0400
0400
0400
0400
0400
0400
0400
0400
0400
0400
0400
0400
0400
0400
0400
0400
0400
0400
0400
0400
0400
0400
0400
0400
0400
0400
0400
0400
8800
F000
ENDCHAR
STARTCHAR 2248
ENCODING 8776
SWIDTH 509 0
DWIDTH 26 0
BBX 24 12 1 11
BITMAP
0F8001
306002
601806
40060C
8001F0
000000
000000
0F8001
306002
601806
40060C
8001F0
ENDCHAR
STARTCHAR 2260
ENCODING 8800
SWIDTH 372 0
DWIDTH 19 0
BBX 17 15 1 5
BITMAP
000400
000800
001000
001000
002000
FFFF80
004000
008000
010000
FFFF80
020000
040000
080000
080000
100000
ENDCHAR
STARTCHAR 2264
ENCODING 8804
SWIDTH 509 0
DWIDTH 26 0
BBX 22 22 2 6
BITMAP
00000C
000030
0001C0
000600
003800
00C000
030000
1C0000
600000
800000
600000
1C0000
030000
00E000
001800
000600
0001C0
000030
00000C
000000
000000
FFFFFC
ENDCHAR
STARTCHAR 2265
ENCODING 8805
SWIDTH 509 0
DWIDTH 26 0
BBX 22 22 2 6
BITMAP
C00000
300000
0E0000
018000
006000
001C00
000300
0000C0
000038
00000C
000038
0000C0
000700
001800
006000
038000
0C0000
300000
C00000
000000
000000
FFFFFC
ENDCHAR
STARTCHAR 25CA
ENCODING 9674
SWIDTH 666 0
DWIDTH 34 0
BBX 26 36 4 -1
BITMAP
000C0000
000C0000
001E0000
003F0000
003F0000
00738000
00E1C000
01E1E000
01C0E000
03807000
07003800
07003800
0E001C00
1C000E00
3C000700
38000700
70000380
E00001C0
E00001C0
70000380
38000700
3C000F00
1C000E00
0E001C00
07003800
07003800
03807000
01C0E000
01E1E000
00E1C000
00738000
003F0000
003F0000
001E0000
000C0000
000C0000
ENDCHAR
STARTCHAR F000
ENCODING 61440
SWIDTH 666 0
DWIDTH 34 0
BBX 31 36 2 -1
BITMAP
00000600
00001E00
00003E00
00007C00
0000FC00
0000F800
0001F800
0001E000
03F1CFC0
0FFC3FF0
1FFFFFF8
3FFFFFFC
3FFFFFF8
7FFFFFF0
7FFFFFE0
FFFFFFE0
FFFFFFC0
FFFFFFC0
FFFFFFC0
FFFFFFC0
FFFFFFC0
FFFFFFE0
FFFFFFE0
7FFFFFF0
7FFFFFF8
7FFFFFFC
7FFFFFFE
3FFFFFFE
3FFFFFFC
1FFFFFFC
1FFFFFF8
0FFFFFF0
07FFFFF0
03FFFFE0
01FFFFC0
00F80F00
ENDCHAR
STARTCHAR F001
ENCODING 61441
SWIDTH 372 0
DWIDTH 19 0
BBX 19 34 1 0
BITMAP
003C00
01C000
020000
0C01C0
100220
300220
2001C0
400000
400000
400080
800080
800080
800080
800080
800080
800080
800080
800080
800080
800080
800080
FFFC80
800080
800080
800080
800080
800080
800080
800080
800080
800080
800080
800080
800080
ENDCHAR
STARTCHAR F002
ENCODING 61442
SWIDTH 352 0
DWIDTH 18 0
BBX 16 34 1 0
BITMAP
003D
01C1
0201
0C01
1001
3001
2001
4001
4001
4001
8001
8001
8001
8001
8001
8001
8001
8001
8001
8001
8001
FFFD
8001
8001
8001
8001
8001
8001
8001
8001
8001
8001
8001
8001
ENDCHAR
ENDFONT
